<?xml version="1.0" encoding="UTF-8" standalone="no"?>
<!-- Created with Inkscape (http://www.inkscape.org/) -->

<svg
   width="67.73333mm"
   height="67.73333mm"
   viewBox="0 0 67.73333 67.73333"
   version="1.1"
   id="svg5"
   xmlns="http://www.w3.org/2000/svg"
   xmlns:svg="http://www.w3.org/2000/svg">
  <defs
     id="defs2" />
  <g
     id="layer1"
     transform="translate(-36.149522,-45.82718)">
    <path
       style="fill:#bbc6c3;fill-opacity:1;stroke-width:0.142828"
       d="m 65.564175,113.52592 c -9.798142,-0.55401 -15.262251,-1.37745 -20.720149,-3.12249 -4.867069,-1.55613 -7.711396,-3.60538 -8.489111,-6.11611 -0.840437,-2.71322 0.915908,-5.298404 4.945889,-7.279906 1.250767,-0.614991 4.491616,-1.810774 4.90762,-1.810774 0.158305,0 0.51763,0.748081 1.180698,2.458092 0.524228,1.351951 0.928599,2.473788 0.898608,2.492978 -0.02999,0.0192 -0.505141,0.17054 -1.055879,0.33634 -1.643531,0.49479 -3.436968,1.30508 -4.246526,1.91864 l -0.760202,0.57615 0.308106,0.29557 c 0.815013,0.78189 2.886221,1.72351 5.468885,2.48631 12.258432,3.62056 35.515605,3.28609 46.138927,-0.66353 1.220439,-0.45374 2.928493,-1.36954 3.389168,-1.81716 l 0.308108,-0.29936 -0.725329,-0.56489 c -0.763316,-0.59447 -2.598766,-1.42212 -4.2814,-1.93059 -0.550737,-0.16642 -1.025886,-0.31829 -1.055878,-0.33748 -0.02999,-0.0192 0.37438,-1.141027 0.898607,-2.492978 0.63008,-1.624943 1.026073,-2.458092 1.168322,-2.458092 0.361553,0 3.309505,1.046017 4.534864,1.609097 4.764987,2.189615 6.577647,5.342543 4.883427,8.494153 -2.16779,4.03254 -11.085745,6.94123 -24.448179,7.97404 -2.505943,0.19369 -11.316082,0.36126 -13.248576,0.25199 z m 2.143297,-7.71611 C 63.743811,102.77146 59.012177,98.436656 55.327728,94.468328 47.74907,86.305741 43.559539,79.062622 42.536451,72.353976 41.390184,64.83762 44.936509,56.87771 51.697172,51.792261 62.771841,43.46177 79.24004,43.90613 89.604373,52.815108 c 4.949517,4.254505 7.762719,9.771243 8.106677,15.897321 0.380243,6.772306 -3.370647,14.779937 -11.078455,23.650957 -3.142708,3.616985 -7.295092,7.673684 -11.309723,11.049114 -2.273785,1.91176 -5.091797,4.0993 -5.280765,4.0993 -0.06288,0 -1.113463,-0.76589 -2.334635,-1.70199 z m 5.19182,-7.868733 C 83.109726,88.973463 89.595395,80.11468 91.244257,72.883693 c 0.418002,-1.833119 0.377949,-5.144503 -0.0839,-6.936282 -0.93877,-3.642055 -2.671698,-6.464777 -5.561576,-9.059114 -3.195181,-2.868416 -6.930512,-4.638684 -11.56168,-5.479369 -1.834793,-0.333067 -6.175966,-0.333067 -8.010764,0 -2.977943,0.540579 -5.682463,1.517598 -8.2011,2.962682 -1.489723,0.854736 -3.927445,2.883779 -5.1303,4.27021 -3.701678,4.266624 -5.061166,9.867332 -3.665939,15.102609 1.883567,7.067662 8.474244,15.810007 18.443527,24.464795 1.363264,1.183512 2.522032,2.151836 2.575034,2.151836 0.05298,0 1.336283,-1.088992 2.851735,-2.419983 z M 68.337133,82.805024 c -0.211822,-0.03248 -0.801075,-0.123541 -1.309453,-0.202363 -3.734354,-0.57901 -7.542968,-2.757805 -9.77207,-5.590318 -0.819707,-1.041598 -1.826769,-3.001984 -2.193026,-4.269024 -0.487022,-1.684813 -0.487022,-4.523071 0,-6.207884 0.366257,-1.267039 1.373319,-3.227429 2.193026,-4.269027 2.219623,-2.820469 5.756112,-4.85435 9.77207,-5.620045 1.517379,-0.289308 4.96975,-0.223029 6.615039,0.126996 2.641724,0.562011 5.32852,1.866895 7.256723,3.524339 4.039172,3.471994 5.518181,8.597106 3.817976,13.230159 -1.059756,2.887828 -3.250366,5.431799 -6.10829,7.093608 -1.165801,0.677883 -3.446677,1.54525 -4.880131,1.855814 -1.261582,0.273322 -4.473449,0.468558 -5.391864,0.327745 z m 3.913563,-5.481977 c 1.740254,-0.382579 2.922043,-0.970509 4.25644,-2.11753 1.334396,-1.147026 2.018369,-2.162869 2.463451,-3.658748 0.555879,-1.868264 0.267287,-3.899743 -0.803595,-5.656756 -0.654738,-1.074234 -2.523697,-2.680757 -3.773417,-3.243555 -2.044036,-0.92051 -4.407376,-1.168577 -6.580838,-0.690756 -1.740247,0.382583 -2.922036,0.970512 -4.256433,2.117534 -1.334402,1.147023 -2.018369,2.162866 -2.463451,3.658749 -0.555878,1.868264 -0.267287,3.899743 0.803595,5.656756 0.655379,1.075286 2.523627,2.680715 3.775828,3.244657 2.04365,0.920374 4.403566,1.167776 6.57842,0.689649 z"
       id="path872" />
  </g>
</svg>
