<?xml version="1.0" encoding="UTF-8" standalone="no"?>
<!-- Created with Inkscape (http://www.inkscape.org/) -->

<svg
   width="1024"
   height="300"
   viewBox="0 0 270.93333 79.375002"
   version="1.1"
   id="svg5"
   inkscape:version="1.1.2 (0a00cf5339, 2022-02-04)"
   sodipodi:docname="slide_1.svg"
   xmlns:inkscape="http://www.inkscape.org/namespaces/inkscape"
   xmlns:sodipodi="http://sodipodi.sourceforge.net/DTD/sodipodi-0.dtd"
   xmlns="http://www.w3.org/2000/svg"
   xmlns:svg="http://www.w3.org/2000/svg">
  <sodipodi:namedview
     id="namedview7"
     pagecolor="#505050"
     bordercolor="#eeeeee"
     borderopacity="1"
     inkscape:pageshadow="0"
     inkscape:pageopacity="0"
     inkscape:pagecheckerboard="true"
     inkscape:document-units="mm"
     showgrid="true"
     units="px"
     width="1024px"
     inkscape:zoom="1.587419"
     inkscape:cx="593.10112"
     inkscape:cy="178.59179"
     inkscape:window-width="1680"
     inkscape:window-height="982"
     inkscape:window-x="1920"
     inkscape:window-y="0"
     inkscape:window-maximized="1"
     inkscape:current-layer="layer1">
    <inkscape:grid
       type="xygrid"
       id="grid1935" />
  </sodipodi:namedview>
  <defs
     id="defs2">
    <clipPath
       clipPathUnits="userSpaceOnUse"
       id="clipPath2041">
      <rect
         style="fill:#000000;fill-opacity:1;stroke-width:0.264583"
         id="rect2043"
         width="269.875"
         height="79.375"
         x="-12.754483"
         y="0.78665167" />
    </clipPath>
  </defs>
  <g
     inkscape:label="Layer 1"
     inkscape:groupmode="layer"
     id="layer1">
    <g
       id="g1933"
       transform="translate(12.754483,-0.78665167)"
       clip-path="url(#clipPath2041)">
      <ellipse
         style="fill:#161f24;fill-opacity:1;stroke-width:1.41853"
         id="path629"
         cx="58.93256"
         cy="46.707722"
         rx="93.806038"
         ry="87.583031" />
      <path
         d="m 54.669082,-41.383041 c -0.399191,0.02768 -1.700263,0.110638 -2.883051,0.193619 -22.310367,1.535169 -43.4970824,10.690812 -59.5682366,25.738159 -15.7902424,14.79840476 -25.2082014,33.73206 -27.3224364,54.892394 -0.354839,3.568214 -0.354839,11.645099 0,15.213314 1.936819,19.473037 9.935428,36.788547 23.700143,51.310345 1.8333238,1.93623 6.2539996,6.05766 8.2351719,7.66198 2.85348006,2.32348 4.4502467,3.4714 11.0442987,7.98008 2.6169234,1.79793 6.2687854,3.66502 10.3050524,5.29699 1.197575,0.48405 2.956976,1.18941 3.903204,1.57666 15.405836,6.26512 33.472944,8.46413 50.549468,6.16831 8.190813,-1.09259 16.7069,-3.33311 23.803638,-6.23747 1.02015,-0.4149 2.74998,-1.12026 3.844066,-1.54899 4.31717,-1.72879 7.7177,-3.52671 11.36956,-6.04383 8.32388,-5.7534 10.5564,-7.52368 15.84939,-12.58555 11.76875,-11.257858 20.55096,-26.692456 24.14368,-42.375997 1.49327,-6.527896 2.06988,-11.783402 2.06988,-18.809185 0.0147,-8.21519 -0.88709,-14.895217 -3.01612,-22.474211 -6.96367,-24.74237784 -24.97163,-45.432478 -49.47017,-56.814798 -10.719016,-4.978904 -21.467621,-7.814118 -33.768631,-8.892879 -2.143803,-0.193617 -11.147788,-0.359586 -12.788907,-0.248941 z m 3.47444,6.624702 c 0,2.544774 -0.02958,4.63315 -0.07392,4.63315 -0.04435,0 -0.665319,-0.276608 -1.374989,-0.608528 -4.021483,-1.880924 -9.181404,-3.360763 -14.296969,-4.093769 -2.439501,-0.359588 -8.47173,-0.525548 -10.719029,-0.304273 -0.768811,0.08296 -1.434132,0.124478 -1.448917,0.09682 -0.08871,-0.06916 2.587353,-0.82982 5.322553,-1.507504 6.682758,-1.673464 14.725731,-2.752225 21.009298,-2.835214 l 1.581978,-0.0138 z m 6.682762,-4.494838 c 6.313139,0.401078 12.330583,1.300045 17.978401,2.710736 2.735203,0.677684 5.411259,1.438348 5.322551,1.507504 -0.01484,0.02759 -0.680105,-0.01379 -1.448917,-0.09682 -2.247304,-0.221275 -8.279525,-0.05528 -10.719028,0.304273 -5.115567,0.733006 -10.275485,2.212845 -14.296972,4.093769 -0.709671,0.33192 -1.330637,0.608527 -1.374991,0.608527 -0.04435,0 -0.07393,-2.088375 -0.07393,-4.633149 v -4.63314 h 1.168007 c 0.650533,0 2.18816,0.06916 3.444873,0.138302 z m -24.823794,6.223626 c 4.110192,0.373419 8.427375,1.327709 12.227086,2.724567 0.931447,0.345754 1.744616,0.663851 1.81854,0.719174 0.05915,0.05528 -0.842735,0.179794 -1.995957,0.276607 -11.029511,0.912801 -22.19209,3.996947 -31.299569,8.630096 -0.842736,0.442566 -1.552408,0.774497 -1.567194,0.760664 -0.206988,-0.248941 -4.952933,-8.063058 -4.952933,-8.146038 0,-0.165961 2.321223,-1.244722 4.272828,-1.991561 4.080625,-1.548986 8.545656,-2.572432 13.173318,-3.015 1.197575,-0.124471 6.86018,-0.08297 8.323881,0.04148 z m 49.337106,0.262773 c 4.701588,0.677684 9.462308,2.088375 13.469004,3.96929 0.76882,0.345762 1.40456,0.650026 1.43414,0.677692 0.0443,0.0276 -4.805086,7.938579 -4.982496,8.132205 -0.0592,0.05528 -0.79838,-0.24895 -1.64112,-0.677684 -9.151835,-4.660806 -20.403119,-7.758794 -31.314352,-8.657761 -1.15322,-0.08296 -2.055097,-0.207451 -1.995958,-0.262774 0.251342,-0.221283 3.711002,-1.41069 5.588681,-1.922413 2.735201,-0.746833 5.396477,-1.217056 8.944843,-1.576652 0.280914,-0.02768 2.321224,-0.04148 4.509384,-0.01388 3.163969,0.02769 4.405895,0.09682 5.987874,0.331929 z m -34.226969,5.615097 c -0.23656,0.179793 -1.138435,0.843644 -1.995957,1.466005 -5.012072,3.692691 -8.95963,8.035401 -12.13838,13.3324 -2.971756,4.978903 -4.923361,10.5525011 -5.677386,16.2920682 -0.118282,0.9128 -0.236561,1.687297 -0.266128,1.70113 -0.05915,0.05528 -14.577881,-23.4699912 -14.622239,-23.6636172 -0.02954,-0.179794 3.770145,-2.019219 6.608838,-3.194793 7.983829,-3.319271 16.425989,-5.33849 25.35605,-6.071496 1.18279,-0.09682 2.380364,-0.179794 2.661277,-0.179794 l 0.51747,-0.01388 z m 10.645104,-0.138303 c 10.748598,0.857477 20.550969,3.485231 30.013283,8.063057 1.50806,0.733007 2.20295,1.134076 2.17337,1.272388 -0.0591,0.221283 -14.56309,23.7880792 -14.622229,23.7327642 -0.0148,-0.01388 -0.133064,-0.815986 -0.266128,-1.784109 C 81.518401,-7.747793 75.190476,-18.300302 65.314186,-25.61652 c -0.887093,-0.663851 -1.81854,-1.355368 -2.069882,-1.535161 -0.532255,-0.401078 -0.650537,-0.387245 2.513427,-0.138303 z m -51.081719,4.162916 c 1.34542,2.185187 2.454287,4.038445 2.483855,4.135258 0.02958,0.08296 -0.768811,0.650018 -1.774183,1.244721 -5.366906,3.167136 -10.1276344,6.804504 -14.82922444,11.285508 -3.41530416,3.2777813 -6.26878416,6.51406416 -9.01876996,10.2205802 -1.1532195,1.576651 -1.1532195,1.562826 -1.0349399,0.760663 1.8185392,-12.9451382 8.75264146,-23.5391382 20.1074223,-30.6617302 0.813169,-0.511723 1.508056,-0.940458 1.552409,-0.940458 0.04435,0 1.168007,1.784103 2.513431,3.955458 z m 94.342248,-2.199013 c 6.01743,4.024613 10.95558,9.39076 14.17868,15.393101 2.43951,4.536336 3.90321,9.11416146 4.65723,14.4526422 0.11829,0.815988 0.10349,0.802163 -1.04972,-0.760663 -2.70563,-3.67885904 -5.5739,-6.9427989 -9.00398,-10.2205802 -4.7016,-4.494837 -9.43275,-8.090707 -14.81444,-11.285508 -1.00538,-0.58087 -1.81854,-1.092593 -1.81854,-1.134083 0,-0.05537 2.54299,-4.204407 4.24326,-6.915141 l 0.79838,-1.286213 0.84273,0.497891 c 0.45834,0.276598 1.34543,0.843644 1.9664,1.258554 z m -50.874738,13.304727 c 0,12.97280416 -0.02958,14.3696702 -0.236557,14.4526522 -0.133064,0.04148 -0.680104,0.08296 -1.212358,0.08296 -1.153221,0 -4.28761,0.331932 -6.091364,0.636196 -3.622296,0.62236 -7.466359,1.742611 -10.86688,3.167134 -1.227145,0.511716 -2.306438,0.954291 -2.395149,0.995781 -0.221774,0.08297 -0.177417,-0.53938 0.192203,-3.416085 1.419349,-10.8429402 7.717701,-21.2433132 16.987816,-28.0063192 1.404563,-1.023437 3.326594,-2.282 3.50401,-2.282 0.05915,0 0.118279,6.472574 0.118279,14.369662 z m 3.415306,-13.664322 c 9.417959,6.071497 16.159861,15.489922 18.599363,25.95944216 0.502688,2.18518804 1.182792,7.08111104 0.975804,7.08111104 -0.05915,0 -0.887093,-0.345762 -1.862894,-0.774497 -3.799712,-1.631974 -7.422006,-2.724568 -11.517413,-3.429909 -1.774183,-0.304264 -4.923362,-0.636193 -6.091369,-0.636193 -0.532255,0 -1.079292,-0.04148 -1.212355,-0.08297 -0.206989,-0.08297 -0.236561,-1.47984604 -0.236561,-14.4526522 0,-7.897088 0.05915,-14.369662 0.118279,-14.369662 0.07393,0 0.620966,0.318097 1.227146,0.705341 z m -65.1125612,9.695032 c -1.626336,2.143697 -3.6814321,5.71191 -4.9085772,8.533282 -1.7741836,4.1076018 -2.8978346,8.4918012 -3.3413796,12.9728052 -0.177419,1.797944 -0.177419,1.825601 -0.487901,1.673465 -0.857522,-0.428734 -7.717698,-4.162917 -7.835979,-4.25972 -0.14785,-0.138305 0.650537,-1.396859 2.676063,-4.2044071 2.202942,-3.0426647 5.026852,-6.4587411 7.6289889,-9.2109741 1.0940802,-1.147909 6.8010403,-6.500232 6.8749649,-6.431076 0.029566,0.02768 -0.2365588,0.442568 -0.60618,0.926625 z m 24.5872372,3.180968 c 1.419349,2.309658 4.790297,7.772618 7.495927,12.14298506 2.690847,4.37036614 4.879008,7.96624514 4.84944,7.99390314 -0.0148,0.02769 -0.38441,-0.110638 -0.798382,-0.318097 -2.690849,-1.258555 -6.934105,-2.613923 -10.526828,-3.319263 -3.873637,-0.774498 -9.831937,-1.106427 -13.8386374,-0.774498 -5.056426,0.41491 -9.9206479,1.535161 -14.3413243,3.277773 -0.8723076,0.345762 -1.7002596,0.663859 -1.8037538,0.719183 -0.2513429,0.082965 1.8481086,-2.807549 3.5187985,-4.882091 4.65723456,-5.7672323 10.8373096,-11.3961532 17.194803,-15.6558822 1.96639,-1.32771 5.307767,-3.346929 5.514756,-3.360762 0.08871,0 1.315852,1.880916 2.735201,4.176749 z m 80.947146,-3.084155 c 9.27012,5.532116 16.94347,12.5302378 23.37489,21.2986372 0.63574,0.87131 1.04972,1.548994 0.93145,1.507504 -0.10351,-0.05528 -0.93145,-0.373421 -1.80377,-0.719183 -4.42066,-1.742612 -9.28489,-2.862863 -14.34131,-3.277773 -2.70564,-0.221283 -8.19083,-0.08297 -10.748596,0.276607 -4.86424,0.677684 -8.98921,1.797935 -12.921977,3.526722 -0.887095,0.387246 -1.41935,0.553214 -1.360209,0.428734 0.07394,-0.193617 14.252606,-23.2072082 14.666586,-23.8295692 0.11828,-0.165969 0.251336,-0.304273 0.295696,-0.304273 0.0443,0 0.90187,0.484066 1.90724,1.092594 z m 24.02542,3.263949 c 3.50401,3.388419 7.09674,7.565159 10.1572,11.82488746 1.0793,1.5075037 2.40993,3.55438874 2.40993,3.69268374 -0.0148,0.08296 -7.67334,4.273561 -8.11689,4.439523 -0.0591,0.01388 -0.19221,-0.788323 -0.2957,-1.797936 -0.45833,-4.59164904 -1.68547,-9.2662893 -3.47444,-13.2909012 -1.168,-2.655413 -3.2231,-6.195968 -4.76072,-8.215186 -0.35485,-0.470233 -0.65054,-0.898967 -0.65054,-0.95429 0,-0.124471 2.42472,2.074541 4.73116,4.301219 z M 58.069597,4.6164852 c 0.04435,0.09681 0.05915,6.9289658 0.04435,15.1856498 L 58.069597,34.807984 57.566914,33.42496 C 55.777946,28.473716 53.161023,23.923552 49.627439,19.663831 47.099226,16.607334 42.70812,12.790172 39.115397,10.50818 c -0.709673,-0.4564 -1.315852,-0.8713108 -1.34542,-0.9266248 -0.04435,-0.138304 3.356164,-1.65964 5.071207,-2.282001 4.0067,-1.438348 8.841351,-2.434128 13.158537,-2.710736 0.887089,-0.05536 1.715041,-0.110637 1.818534,-0.12447 0.103497,0 0.221774,0.06916 0.251342,0.152137 z m 6.505345,0.193618 c 3.474441,0.37342 7.274153,1.217064 10.526824,2.351147 1.552412,0.539381 5.514759,2.254336 5.514759,2.39264 0,0.04148 -0.620965,0.4840568 -1.389782,0.9542898 -3.356162,2.116031 -7.569851,5.739567 -10.157203,8.740733 -3.533583,4.121425 -6.460988,9.114162 -8.279523,14.176047 l -0.502689,1.383024 -0.04435,-15.005849 c -0.0148,-8.256684 0,-15.0750128 0.02954,-15.1579928 0.07393,-0.179794 1.567199,-0.12448 4.302399,0.165961 z m -81.73075,2.143697 c 2.26208,1.217064 4.169327,2.268167 4.228468,2.323482 0.05915,0.05528 -0.532256,0.511723 -1.330638,1.0096128 -6.697546,4.176741 -12.034879,9.764181 -15.893737,16.63783 -0.561822,0.981949 -0.975794,1.604312 -0.916653,1.383029 1.020148,-4.439526 3.060462,-10.4142 5.115564,-14.936703 1.315846,-2.918195 4.376317,-8.6439288 4.627661,-8.6439288 0.02959,0 1.92203,0.995781 4.169335,2.226678 z M 140.89444,6.6357032 c 3.43008,6.0299988 6.46097,13.5260178 8.1021,20.0124178 0.20699,0.829815 0.41397,1.645802 0.45833,1.797936 0.0443,0.152132 -0.38441,-0.539383 -0.93144,-1.521332 -3.85887,-6.818326 -9.07793,-12.308953 -15.73111,-16.527183 -0.81316,-0.5255558 -1.4637,-0.9957798 -1.44891,-1.0649368 0.0443,-0.16596 8.30909,-4.59165 8.44215,-4.522502 0.0591,0.04148 0.56183,0.857477 1.10888,1.8256 z M 17.322503,5.0728762 c 3.903203,0.414911 7.865551,1.32771 11.473056,2.65542 1.90725,0.705343 4.361539,1.77027 4.361539,1.89475 0,0.02769 -0.340053,0.262773 -0.754031,0.4978898 -2.483855,1.507494 -6.283567,4.59165 -8.53087,6.956631 -1.848107,1.936237 -2.86826,3.153302 -4.331962,5.158688 L 18.431366,23.799081 5.0658456,16.579676 -8.2848915,9.3602632 -6.9394677,8.7655682 C -2.8144898,6.9538002 2.3454296,5.5845992 6.9583096,5.0867092 9.3682406,4.8239352 14.883,4.8239352 17.322503,5.0728292 Z m 93.883917,0 c 3.68143,0.387253 7.55506,1.258555 10.95558,2.461794 2.29166,0.815987 4.47981,1.770279 4.33197,1.908581 -0.17742,0.165961 -26.538836,14.3834868 -26.583186,14.3420058 -0.0148,-0.02769 -0.50269,-0.691517 -1.06451,-1.493671 -3.38574,-4.743794 -8.39781,-9.473749 -12.892414,-12.17065 -0.413972,-0.2351168 -0.754024,-0.4702338 -0.754024,-0.4978898 0,-0.12448 2.454286,-1.189407 4.36153,-1.89475 3.504018,-1.286219 7.584638,-2.240509 11.280854,-2.641587 2.40993,-0.262774 7.92469,-0.262774 10.3642,-0.01388 z M 3.9569806,18.349954 c 7.1558754,3.858643 13.0846084,7.081101 13.1881044,7.150248 0.118279,0.08297 -0.147849,0.733008 -0.990589,2.364982 -2.528213,4.895919 -4.139761,10.580166 -4.553738,16.043128 L 11.497262,45.401983 9.9448526,44.406202 C 0.12769856,38.113423 -6.6881259,28.349243 -8.9797808,17.312683 -9.3198323,15.653043 -9.719024,12.58272 -9.719024,11.600773 c 0,-0.650026 0,-0.650026 0.3400523,-0.4564 0.177419,0.110646 6.1800748,3.34693 13.3359523,7.205581 z M 34.990418,11.393323 c 0.04435,0.179793 0.08871,0.636184 0.08871,1.009604 0,1.922414 0.842737,6.348104 1.788969,9.404593 1.138436,3.665025 3.178746,7.952414 5.381692,11.27168 0.827955,1.244725 3.267456,4.328882 4.46503,5.656585 0.310482,0.345759 0.502689,0.580873 0.413978,0.539384 -2.380365,-1.217066 -26.68669,-14.424984 -26.68669,-14.494132 0,-0.05537 0.443544,-0.719183 0.9758,-1.466013 2.27687,-3.180968 5.662604,-6.680034 8.782211,-9.058838 1.50806,-1.161742 4.420678,-3.153304 4.598096,-3.167137 0.05915,0 0.133063,0.138305 0.192202,0.304274 z m 50.12071,0.677684 c 4.405883,2.904353 8.205596,6.444907 11.266066,10.497177 1.25672,1.645806 1.59677,2.212853 1.44891,2.351148 -0.074,0.06916 -5.82523,3.194797 -12.774117,6.956636 -6.948893,3.748003 -12.966332,6.998121 -13.380308,7.219407 l -0.739245,0.414908 0.857522,-0.968121 c 5.514755,-6.154477 9.063125,-12.972804 10.65989,-20.399668 0.413979,-1.894747 0.827956,-4.826766 0.827956,-5.808714 0,-0.636193 0.133064,-1.244731 0.251342,-1.244731 0.04435,0 0.754021,0.442568 1.581984,0.981958 z m 42.964822,-0.387253 c 0,1.009614 -0.42876,4.107593 -0.82795,5.96085 -2.30645,10.842944 -9.13705,20.53797 -18.83592,26.761598 l -1.55242,0.995781 -0.10349,-1.493671 c -0.41398,-5.462962 -2.01075,-11.147209 -4.55374,-16.056959 l -1.16801,-2.240504 0.76882,-0.414911 c 0.42875,-0.221283 6.46098,-3.485231 13.40987,-7.24707 6.94889,-3.76183 12.68542,-6.845986 12.75935,-6.845986 0.0591,-0.01388 0.10349,0.248943 0.10349,0.580872 z m -142.777475,2.129864 c -4.952933,9.999296 -7.510713,19.556021 -7.96904,29.873411 l -0.103495,2.254336 h -5.233846 -5.219059 v -0.41491 c 0,-0.829815 0.443548,-4.39803 0.739246,-5.877869 2.010739,-10.262069 8.087318,-19.569854 16.899103,-25.959439 0.724458,-0.511722 1.345422,-0.940457 1.374993,-0.940457 0.02956,0 -0.192205,0.484058 -0.487902,1.064928 z m 149.356735,0.414909 c 0.90189,0.663852 2.45428,1.991562 3.47444,2.945853 7.7325,7.219404 12.33059,16.375051 13.30639,26.554138 0.0739,0.871309 0.14784,1.728784 0.14784,1.894751 v 0.318096 h -5.21905 -5.23385 l -0.10349,-2.254336 c -0.45833,-10.151428 -3.35617,-21.049688 -7.85077,-29.582979 -0.36961,-0.677685 -0.66531,-1.27238 -0.66531,-1.300045 0,-0.138303 0.5914,0.262782 2.1438,1.424522 z m -145.985785,2.323484 c 1.8924631,11.230191 8.8561366,21.934829 18.6141526,28.614857 0.532254,0.359587 0.990585,0.691515 1.020152,0.719173 0.02958,0.02768 -6.431416,0.05533 -14.3708905,0.05533 H -20.511977 v -1.147914 c 0,-2.475622 0.473114,-6.901312 1.108864,-10.428033 1.182794,-6.514066 3.474444,-13.277071 6.490557,-19.196432 l 1.049726,-2.060716 0.118279,0.815987 c 0.05915,0.456409 0.236558,1.631974 0.413976,2.627755 z m 144.566445,2.835214 c 3.1196,7.357706 4.83465,14.355831 5.48518,22.391222 0.0739,1.023443 0.14785,2.37881 0.14785,3.015003 v 1.147915 h -14.44481 c -7.93948,0 -14.40047,-0.02768 -14.3709,-0.05533 0.0296,-0.02765 0.4879,-0.359585 1.02016,-0.719172 2.38036,-1.631975 5.20427,-4.052273 7.20024,-6.182138 6.66796,-7.108763 10.74859,-15.725031 11.8131,-24.991321 l 0.10349,-0.898967 1.00537,1.936238 c 0.56183,1.064928 1.47849,3.028832 2.04032,4.356543 z M 78.250944,14.090224 c -0.177417,0.29044 -4.124979,6.680025 -8.767426,14.189867 -4.627666,7.509847 -8.442159,13.63666 -8.471731,13.622829 -0.08871,-0.09681 0.547041,-3.291607 0.990585,-4.923577 1.981176,-7.468354 6.061797,-14.162209 12.034883,-19.735815 1.788973,-1.673465 4.213689,-3.665027 4.465031,-3.665027 0.04436,0 -0.07392,0.235117 -0.251342,0.511723 z m -36.99174,0.484058 c 1.655904,1.24473 4.938147,4.370367 6.431417,6.12682 4.982504,5.836374 8.235175,12.682364 9.462314,19.887943 0.118279,0.677684 0.162637,1.175575 0.103497,1.106422 -0.07393,-0.05533 -3.962345,-6.334268 -8.649147,-13.940924 -4.686804,-7.606654 -8.560441,-13.871769 -8.604795,-13.940925 -0.162635,-0.262773 0.221775,-0.02768 1.256714,0.760664 z m 5.322553,14.010075 c 4.83465,7.827944 8.915275,14.452646 9.077911,14.68776 0.162632,0.248945 0.251342,0.456401 0.206988,0.456401 -0.04435,0 -0.754029,-0.51172 -1.596765,-1.120252 -1.833326,-1.355368 -5.73653,-4.992734 -7.126307,-6.624703 -4.184118,-4.951244 -7.170665,-10.663155 -8.73786,-16.73465 -0.39919,-1.590476 -0.961017,-4.577817 -0.961017,-5.117198 0.0148,-0.331929 0.0148,-0.331929 0.177421,-0.06916 0.08871,0.152128 4.124978,6.680015 8.959629,14.521789 z M 80.764371,15.196651 c -0.872307,5.684235 -2.912619,11.119538 -5.987872,15.932482 -2.143803,3.346927 -4.198903,5.781058 -7.200228,8.533282 -1.81854,1.673466 -4.790298,4.038445 -4.908579,3.913972 -0.07392,-0.06915 18.155817,-29.582975 18.214961,-29.513819 0.02954,0.02759 -0.0148,0.539372 -0.118282,1.134083 z M 33.452792,34.282436 c 7.599424,4.107594 14.030844,7.565163 14.267401,7.689635 0.620965,0.304267 0.428762,0.290439 -1.848109,-0.165961 -3.844064,-0.788326 -5.13035,-0.912799 -10.053711,-0.912799 -2.971758,0 -4.982501,0.06915 -5.913947,0.179794 -5.263413,0.691515 -10.053711,2.005391 -14.696159,4.024612 -0.724457,0.304266 -1.360209,0.567042 -1.404562,0.567042 -0.206989,0 0.177416,-3.983122 0.591394,-6.154476 0.384405,-2.03305 1.168002,-4.785277 1.877678,-6.638535 0.768812,-1.963902 0.901877,-2.281999 1.995958,-4.398032 0.66532,-1.300046 0.961015,-1.756447 1.123649,-1.714954 0.133064,0.02764 6.460989,3.416081 14.060408,7.523674 z m 66.650178,-5.80872 c 1.95161,3.844818 3.10483,7.150255 3.85887,11.036567 0.39918,2.157522 0.79837,6.154476 0.59138,6.154476 -0.0443,0 -0.6801,-0.262776 -1.40456,-0.567042 -4.642446,-2.019221 -9.432736,-3.333097 -14.696159,-4.024612 -0.93144,-0.110642 -2.942188,-0.179794 -5.913943,-0.179794 -4.90858,0 -6.209647,0.124473 -10.038926,0.898968 -1.094081,0.235114 -2.010743,0.401078 -2.025529,0.373417 -0.05914,-0.04149 28.386951,-15.420765 28.564371,-15.434595 0.0887,-0.01384 0.56182,0.774496 1.064496,1.742615 z M 40.401682,43.050835 c 3.740572,0.345755 8.900491,1.521332 11.975743,2.724566 0.266129,0.11064 -4.657232,0.152134 -16.632976,0.152134 H 18.741851 l 1.108864,-0.414911 c 2.55778,-0.954287 6.919319,-1.963899 10.11285,-2.351148 3.297024,-0.401076 6.919319,-0.428738 10.438117,-0.110641 z m 47.385502,0.06915 c 3.5188,0.359587 7.89512,1.341535 10.71903,2.392637 l 1.10886,0.414911 H 82.612483 c -14.607453,0 -16.943463,-0.02768 -16.529486,-0.193625 0.709672,-0.276608 3.947562,-1.272388 5.233843,-1.576652 2.498645,-0.622364 6.253999,-1.134086 9.373605,-1.313878 1.463704,-0.08299 5.041646,0.05533 7.096739,0.276607 z m -110.457749,7.205577 c 0.443539,10.441862 3.311806,21.063522 8.131674,30.163845 0.532256,1.009611 0.931447,1.825599 0.887092,1.825599 -0.04435,0 -0.561824,-0.331929 -1.138435,-0.733003 -5.751309,-3.983122 -10.526829,-9.349273 -13.705574,-15.379277 -2.853479,-5.42147 -4.317176,-10.580166 -4.672015,-16.499528 l -0.103495,-1.687295 h 5.248625 5.248633 z M 9.4865226,48.071224 c -0.02959,0.02769 -0.694891,0.484064 -1.463702,0.981954 -5.085996,3.374586 -9.7432307,8.049222 -12.9959009,13.069617 -3.4153053,5.255505 -5.7808837,11.423812 -6.5201277,17.011246 -0.103494,0.719177 -0.221774,1.424519 -0.280912,1.576654 -0.07393,0.193624 -0.369623,-0.276608 -1.15322,-1.797936 -3.651862,-7.164088 -6.13572,-15.323955 -7.12631,-23.497654 -0.251336,-1.9639 -0.458327,-4.854429 -0.458327,-6.182135 v -1.217063 h 15.0362111 c 8.2647415,0 14.9918565,0.02769 14.9622885,0.05533 z m 44.8720744,0.06915 c -0.206988,0.179792 -3.356163,1.313877 -5.012067,1.811767 -8.752645,2.600093 -18.599368,2.572433 -27.440719,-0.06914 -1.803754,-0.553211 -4.553741,-1.548992 -4.775512,-1.742616 -0.08871,-0.06915 7.969044,-0.124473 18.61415,-0.124473 10.585966,0 18.70286,0.05533 18.614148,0.124473 z m 46.868023,0 c -0.22176,0.193624 -2.971746,1.189404 -4.775506,1.742615 -4.93814,1.47984 -9.831936,2.116033 -15.16927,1.963903 -5.603466,-0.165967 -10.290271,-1.064932 -15.450189,-2.959684 -0.931445,-0.345753 -1.759401,-0.691513 -1.833326,-0.746834 -0.08871,-0.06915 8.028187,-0.124473 18.614154,-0.124473 10.645101,0 18.702847,0.05532 18.614137,0.124473 z m 37.64228,1.147916 c 0,1.867087 -0.36962,5.794888 -0.81316,8.630094 -1.10887,7.219407 -3.5188,14.632441 -6.83062,21.118844 -0.97579,1.880919 -1.21236,2.116033 -1.22714,1.134084 -0.0147,-1.34154 -1.07929,-5.960854 -1.99596,-8.560947 -3.14918,-9.045007 -9.49189,-17.135723 -17.66791,-22.55719 -0.76882,-0.49789 -1.43414,-0.954291 -1.46371,-0.981953 -0.0296,-0.02764 6.69755,-0.05533 14.96228,-0.05533 h 15.03622 z m 12.71498,-0.553212 c 0,2.019219 -0.56182,5.877869 -1.24192,8.574774 -2.40993,9.515235 -8.67872,18.380448 -17.1948,24.272148 -0.57661,0.401075 -1.09409,0.733003 -1.13844,0.733003 -0.0295,0 0.4879,-1.078762 1.168,-2.392637 3.8145,-7.399203 6.32793,-15.572899 7.37766,-23.954053 0.2809,-2.212844 0.53225,-5.44913 0.53225,-6.88748 v -1.064932 h 5.24863 5.24862 z M 19.850715,51.390502 c 7.806412,2.544772 15.864162,3.194797 23.788852,1.936241 1.168008,-0.179795 2.143806,-0.318098 2.173378,-0.290436 0.04436,0.05533 -26.56841,14.383491 -26.612763,14.328171 -0.02958,-0.02765 -0.354838,-0.622363 -0.724458,-1.300046 -2.602138,-4.882089 -4.272828,-10.538674 -4.627666,-15.655879 l -0.103493,-1.410691 2.055096,0.871307 c 1.123651,0.484064 2.956972,1.175578 4.051054,1.521333 z m 84.658145,-0.995781 c -0.25134,3.789498 -1.28627,8.063053 -2.85347,11.866382 -0.76881,1.867088 -2.409936,5.144869 -2.572576,5.089548 -0.23654,-0.09682 -26.435336,-14.272854 -26.405765,-14.300516 0.0148,-0.01384 0.961015,0.110645 2.09945,0.290438 9.314463,1.47984 19.353395,0.207453 27.869481,-3.512893 1.02015,-0.456401 1.87768,-0.815988 1.90724,-0.829818 0.0296,-0.01384 0.0148,0.622362 -0.0443,1.396859 z m -92.863748,0.207457 c 0.45833,5.615091 2.18816,11.340828 4.92336,16.444203 l 0.754031,1.410691 -13.3950924,7.233239 c -7.3776503,3.983122 -13.4690157,7.274729 -13.5429405,7.302387 -0.2513429,0.09682 0.2069881,-3.568211 0.7983834,-6.348101 1.9072477,-8.87904 7.5846379,-17.799573 15.1397051,-23.746593 1.478487,-1.161747 4.8790074,-3.499063 5.1007824,-3.499063 0.05915,0 0.162632,0.53938 0.221771,1.203237 z m 97.313998,0.06914 c 6.254,4.190573 11.02951,9.446082 14.38568,15.808013 2.72041,5.158695 4.1102,9.791839 4.67202,15.531407 l 0.0887,1.023442 -0.72446,-0.40108 c -0.39919,-0.207455 -6.49056,-3.499062 -13.52815,-7.302391 l -12.8037,-6.915141 0.73924,-1.383026 c 2.7352,-5.089547 4.46503,-10.829112 4.93814,-16.430375 0.074,-1.037275 0.13307,-1.203237 0.32527,-1.134085 0.13306,0.04149 0.99059,0.580873 1.90725,1.203236 z m -54.083043,1.244725 c -0.103493,0.179794 -3.799707,6.195965 -8.235172,13.38771 -4.435459,7.191749 -8.264742,13.401547 -8.516084,13.802627 -0.251342,0.401075 -0.473115,0.663852 -0.502683,0.580868 -0.02958,-0.08298 0.05915,-0.746835 0.192202,-1.493671 1.552413,-8.560943 5.943519,-16.554849 12.493214,-22.723155 1.596765,-1.507497 4.450245,-3.858648 4.672019,-3.858648 0.02954,0 -0.0148,0.138303 -0.103496,0.304269 z m 9.950217,0.760663 c 8.14646,6.292779 13.927348,15.68354 15.716317,25.530704 0.147844,0.746836 0.22177,1.383029 0.192202,1.424517 -0.04435,0.02768 -3.134393,-4.909749 -6.889751,-10.967414 -3.740568,-6.071492 -7.643777,-12.39193 -8.663929,-14.051566 -1.020158,-1.645801 -1.818541,-3.001172 -1.788974,-3.001172 0.02958,0 0.680105,0.484063 1.434135,1.064931 z m 5.35212,14.148381 c 4.997287,8.104547 9.063126,14.743081 9.033559,14.770744 -0.221775,0.207451 -4.509389,-3.37459 -6.682763,-5.573607 -5.899161,-5.988513 -9.846723,-13.553677 -11.266072,-21.575241 -0.384406,-2.199015 -0.428759,-2.586264 -0.280909,-2.447961 0.05915,0.05533 4.198904,6.735349 9.196185,14.826065 z M 57.108583,54.405499 c -1.094081,5.94702 -3.370947,11.368491 -6.874964,16.361225 -1.995957,2.849037 -4.361535,5.42147 -7.318511,7.980069 -1.404562,1.217068 -3.563151,2.8767 -3.740572,2.8767 -0.04436,0 2.055101,-3.443737 4.642452,-7.648146 2.602137,-4.190577 6.697545,-10.842943 9.122264,-14.770743 3.07525,-4.99273 4.405886,-7.025784 4.435458,-6.818329 0.02954,0.179793 -0.08871,1.092591 -0.266127,2.019224 z m 26.095294,6.749176 c 7.081947,3.817159 13.306387,7.191749 13.853417,7.496016 l 1.00537,0.539379 -0.54703,0.788324 c -1.99597,2.890532 -5.05643,6.26512 -7.614217,8.436476 -2.129021,1.797937 -6.076578,4.591652 -6.505337,4.591652 -0.05915,0 -0.118278,-0.304265 -0.118278,-0.677683 0,-1.908578 -0.946232,-6.859821 -1.862894,-9.667369 -2.262085,-6.998121 -5.928732,-12.875993 -11.354782,-18.269802 -0.709672,-0.705347 -0.724458,-0.733004 -0.236555,-0.456401 0.280913,0.152136 6.313138,3.402249 13.380306,7.219408 z m -35.794166,-5.85021 c -5.825241,6.030003 -9.698877,13.152601 -11.428706,20.952877 -0.473113,2.185185 -0.901876,5.020396 -0.901876,6.071497 0,0.373418 -0.04435,0.677683 -0.08871,0.677683 -0.473116,0 -4.213684,-2.627755 -6.682758,-4.702294 -2.202945,-1.83943 -5.573894,-5.601265 -7.451574,-8.312002 L 20.323832,69.217732 34.53209,61.528093 c 7.821197,-4.232067 14.237828,-7.689636 14.2674,-7.703468 0.02954,0 -0.606181,0.663852 -1.389779,1.47984 z m 10.674672,34.146966 c -0.04435,0.110644 -0.428759,0.138309 -1.153216,0.09686 -5.618252,-0.290434 -11.014729,-1.466017 -15.864166,-3.457575 -1.803755,-0.746835 -2.735201,-1.1894 -2.735201,-1.286215 0,-0.05533 0.473116,-0.387249 1.049725,-0.760666 8.116892,-5.186354 14.770084,-13.387714 17.948832,-22.128452 0.295695,-0.84365 0.591395,-1.618142 0.650533,-1.728783 0.103493,-0.221288 0.206989,29.01593 0.103493,29.264874 z m 2.42472,-29.043591 c 0,0.359586 1.345425,3.692686 2.232513,5.504453 3.385734,6.942801 9.003986,13.318563 15.657178,17.744255 0.857521,0.567038 1.567194,1.078759 1.596766,1.13408 0.07392,0.179793 -3.104821,1.535164 -5.662606,2.392641 -3.873636,1.300042 -8.885705,2.212845 -12.862836,2.351143 l -1.18279,0.04151 -0.04435,-14.770736 c -0.0148,-9.874825 0.0148,-14.743081 0.118279,-14.687762 0.07393,0.04149 0.147849,0.179793 0.147849,0.290436 z m -90.631243,7.454522 c 2.276871,4.052273 4.805077,7.302391 8.27953,10.621659 2.188152,2.102203 4.036263,3.595874 6.549691,5.283169 0.916661,0.60853 1.685475,1.16174 1.700259,1.230894 0.05915,0.138303 -7.673341,4.370365 -7.835979,4.287385 -0.192202,-0.110635 -2.084667,-3.540551 -3.237885,-5.864039 -2.336013,-4.743784 -4.317185,-9.902482 -5.603465,-14.590946 -0.251345,-0.912802 -0.487901,-1.78411 -0.547043,-1.93624 -0.133062,-0.456402 0.04434,-0.207457 0.694892,0.968118 z m 178.8969,0.428737 c -1.3602,4.992734 -3.38573,10.331222 -5.67738,14.992031 -1.31586,2.669245 -3.17875,5.947021 -3.37096,5.947021 -0.10349,0 -7.7177,-4.038444 -7.9099,-4.204406 -0.0147,-0.01383 0.7836,-0.567041 1.77418,-1.230898 6.31314,-4.204404 11.54699,-9.833331 14.88837,-15.973976 0.35483,-0.636194 0.65053,-1.120253 0.68009,-1.106421 0.0147,0.02765 -0.14783,0.733003 -0.3844,1.576649 z m -129.101462,3.72035 c 3.31181,4.605484 7.643776,8.699247 12.58192,11.852549 l 1.537627,0.981951 -1.315853,0.622361 c -12.2123,5.753392 -27.1154494,5.919352 -39.5199542,0.428744 -1.0940805,-0.497891 -1.7889689,-0.871309 -1.7002594,-0.94046 0.2365574,-0.221287 27.0415246,-14.660103 27.1302346,-14.632441 0.05915,0.01384 0.635748,0.774494 1.286285,1.687296 z m 94.135252,5.670416 13.55772,7.33005 -1.59676,0.719171 C 113.30587,91.373842 98.180954,91.277022 85.879932,85.46831 l -1.315846,-0.622361 1.537624,-0.981951 c 4.967714,-3.180966 9.432744,-7.3992 12.714994,-12.032342 0.60617,-0.857481 1.168,-1.535165 1.256706,-1.521333 0.0887,0.02768 6.26878,3.333096 13.73514,7.371542 z m 20.96494,11.327006 c 2.08467,1.134071 3.79971,2.129861 3.79971,2.212831 0,0.22129 -2.55778,3.94164 -4.08062,5.93319 -2.92741,3.830998 -6.47577,7.731138 -9.89108,10.884448 l -2.17338,2.00539 0.73925,-1.12025 c 3.10482,-4.7023 5.44082,-10.428048 6.46098,-15.890998 0.29571,-1.56283 0.66533,-4.743787 0.66533,-5.725745 0,-0.733001 0,-0.733001 0.34005,-0.539376 0.17742,0.110641 2.04031,1.120255 4.13976,2.24051 z M -11.818475,88.842899 c 0.591395,6.928973 2.9126191,13.733481 6.6679756,19.542201 l 1.0645107,1.65963 -2.1585904,-2.00539 c -3.4300902,-3.18097 -6.9784579,-7.0811 -9.8910779,-10.884448 -1.478487,-1.93623 -4.080621,-5.7119 -4.080621,-5.91934 0,-0.12449 7.909902,-4.481022 8.131676,-4.494854 0.04435,0 0.162632,0.954291 0.266127,2.102201 z m 51.052154,-1.286218 c 5.026854,2.212851 11.280854,3.720341 16.544267,3.969301 0.931447,0.0415 1.848106,0.0968 2.040309,0.1383 l 0.325267,0.0554 v 14.729248 c 0,8.10453 -0.04435,14.72925 -0.103493,14.72925 -0.162635,-0.0138 -2.883049,-1.83942 -4.198902,-2.83521 -1.552412,-1.16174 -4.095406,-3.49907 -5.588679,-5.1172 C 41.954095,106.3936 38.169169,97.998622 37.296861,88.953614 37.11944,87.017378 37.11944,86.740772 37.267281,86.740772 c 0.07393,0 0.961018,0.359586 1.96639,0.815989 z m 41.900316,0.456407 C 80.08427,101.19336 73.312796,112.53418 61.928447,120.1685 c -0.82795,0.55321 -1.537622,1.00961 -1.596765,1.00961 -0.07392,0 -0.118279,-6.62471 -0.118279,-14.72926 V 91.719602 l 0.340052,-0.0554 c 0.177418,-0.0415 1.094083,-0.0969 2.025529,-0.13831 5.278196,-0.24895 11.842681,-1.839425 16.632979,-4.024608 0.901874,-0.401081 1.715043,-0.746837 1.833322,-0.746837 0.162634,-0.01384 0.177416,0.235114 0.08871,1.25856 z m -48.420443,-0.22129 c 0,0.124471 -14.060411,22.916782 -14.2674,23.138062 -0.162635,0.15214 -0.473117,0.0139 -1.862894,-0.81598 -7.3332954,-4.34272 -14.0160544,-9.94397 -19.6490906,-16.458038 -1.4045631,-1.63197 -4.3319669,-5.407638 -4.2432573,-5.476792 0.029576,-0.02768 0.8870917,0.248943 1.8924628,0.622358 7.6585627,2.849034 15.9972281,3.803334 24.0845531,2.766054 4.213686,-0.52554 9.521457,-1.936232 12.788909,-3.374585 1.079296,-0.48406 1.256717,-0.539378 1.256717,-0.401079 z m 54.704013,0.622368 c 1.744616,0.719177 4.701589,1.645796 6.993239,2.185186 9.595386,2.30965 20.003926,1.67345 29.362756,-1.797944 1.00536,-0.373415 1.86289,-0.663848 1.89245,-0.636195 0.074,0.08302 -2.88305,3.913979 -4.24325,5.490629 -5.63304,6.514068 -12.3158,12.115318 -19.64909,16.458038 -0.91667,0.55321 -1.71505,0.94046 -1.774186,0.87131 -0.0887,-0.0692 -12.892405,-20.828408 -14.326534,-23.193392 -0.04434,-0.06918 0.01484,-0.09676 0.133062,-0.04151 0.118282,0.04151 0.842741,0.345761 1.611553,0.663858 z m 3.415299,11.866384 c 6.94889,11.27167 7.27416,11.81105 6.99324,12.00469 -0.14785,0.11064 -1.64111,0.84364 -3.3118,1.61814 -8.16125,3.78949 -16.603412,6.14064 -25.799602,7.20557 -2.010738,0.23512 -4.923361,0.41491 -4.805078,0.3181 0.04435,-0.0415 0.768811,-0.59471 1.611546,-1.21707 7.46636,-5.54593 13.306383,-13.7058 15.967659,-22.335908 0.901879,-2.93202 1.788973,-7.46835 1.788973,-9.169471 0,-0.304271 0.05915,-0.44257 0.133064,-0.373426 0.07392,0.08302 3.415303,5.449137 7.421998,11.949375 z M 35.315685,90.820632 c 1.094083,8.21519 4.568528,15.918658 10.127636,22.488058 1.567199,1.86707 5.396478,5.43528 7.37765,6.90129 0.857521,0.62236 1.581984,1.17558 1.626338,1.21707 0.118276,0.0968 -2.794341,-0.0829 -4.805085,-0.3181 -9.196189,-1.06493 -17.638348,-3.41608 -25.799594,-7.20557 -1.670691,-0.7745 -3.149179,-1.49367 -3.297029,-1.60432 -0.236556,-0.16596 0.280914,-1.06494 6.786255,-11.58977 3.858851,-6.278948 7.170665,-11.631274 7.348082,-11.894045 l 0.325266,-0.48407 0.04436,0.414916 c 0.0148,0.22128 0.133064,1.161751 0.266126,2.074541 z m -41.1906428,2.83521 c 2.1438055,2.62776 4.1693335,4.75761 7.2298004,7.620488 4.376322,4.07994 7.969045,6.83216 13.0846094,9.97163 1.463702,0.89898 2.676061,1.70114 2.676061,1.77028 0,0.23512 -5.026853,8.29816 -5.174703,8.29816 -0.266127,0 -4.5389554,-2.61392 -5.6034664,-3.4299 -1.58198,-1.20323 -4.479815,-3.9693 -5.91394704,-5.64276 -5.33733816,-6.23746 -8.51608446,-13.055778 -9.77279906,-21.035858 -0.1182777,-0.78833 -0.2217727,-1.645807 -0.2217727,-1.93624 0,-0.48406 0.044355,-0.456397 1.1975742,1.14791 0.6653192,0.89896 1.7889696,2.36498 2.4986432,3.23629 z M 127.78026,90.682332 c -1.24194,8.79605 -5.11557,16.693138 -11.42872,23.290198 -1.49327,1.54899 -4.0954,3.81716 -5.3669,4.67463 -1.65591,1.0926 -4.52417,2.69691 -4.64245,2.58627 -0.14785,-0.15213 -5.01207,-8.00774 -5.05642,-8.20136 -0.0296,-0.0692 1.168,-0.87131 2.6317,-1.78411 5.15992,-3.18096 8.73787,-5.91936 13.15853,-10.04078 4.0067,-3.761848 7.55508,-7.744958 10.03893,-11.327008 0.87232,-1.244725 0.94624,-1.147908 0.66533,0.80216 z M 19.658512,114.19382 c 0.177418,0.11064 1.508056,0.76066 2.956972,1.43834 9.033557,4.21823 18.2741,6.72152 28.460876,7.68964 1.197574,0.11065 2.469069,0.20746 2.823907,0.20746 0.369624,0 0.872307,0.0415 1.123649,0.0829 0.458331,0.0968 0.458331,0.0968 0.133064,0.24894 -0.961013,0.45641 -3.208318,1.30004 -4.908575,1.83943 -9.521457,2.98734 -19.900434,2.97351 -29.214901,-0.0276 -1.434131,-0.47022 -6.505342,-2.7799 -6.904533,-3.15331 -0.133065,-0.12447 0.428759,-1.14791 2.424715,-4.35653 1.419349,-2.29584 2.63171,-4.17675 2.690849,-4.17675 0.04435,0 0.236556,0.0969 0.413977,0.20746 z m 82.218648,3.96928 c 2.08468,3.40226 2.52821,4.20441 2.36558,4.34271 -0.38441,0.35959 -5.411256,2.66925 -6.697546,3.09799 -10.541602,3.44373 -22.132943,3.07033 -32.733696,-1.07876 -2.143806,-0.84365 -2.202946,-0.9543 -0.487902,-0.98196 2.483859,-0.0415 8.131679,-0.7745 12.005315,-1.54898 7.495928,-1.49367 15.213633,-4.13527 21.438063,-7.3439 0.69489,-0.34574 1.33064,-0.65001 1.40456,-0.65001 0.0887,0 1.301066,1.86708 2.705626,4.16291 z m -43.733638,11.03657 v 4.28738 h -1.07929 c -4.065841,0 -10.896453,-0.70534 -16.071156,-1.67345 -2.321224,-0.42874 -7.274156,-1.56282 -7.614205,-1.75645 -0.103497,-0.0553 1.138431,-0.0968 2.779555,-0.11065 3.10482,-0.0138 4.908575,-0.15213 7.791627,-0.62236 4.243256,-0.67768 9.462312,-2.28199 12.936757,-3.9693 0.4879,-0.23511 0.975802,-0.42873 1.079294,-0.44256 0.133065,0 0.177418,0.94046 0.177418,4.28739 z m 3.370953,-3.81716 c 4.6868,2.19902 10.452902,3.77566 16.145076,4.38421 0.857521,0.0967 2.897831,0.17978 4.538953,0.17978 1.64112,0.0138 2.883049,0.0553 2.779553,0.11065 -0.340051,0.19363 -5.292978,1.32771 -7.614206,1.75645 -5.130346,0.95428 -12.034883,1.67345 -16.071151,1.67345 h -1.079297 v -4.28738 c 0,-2.83521 0.04435,-4.28739 0.147851,-4.28739 0.08871,0 0.60618,0.20745 1.153221,0.47023 z"
         id="path799"
         style="fill:#11191f;fill-opacity:1;stroke:none;stroke-width:0.0142997" />
      <g
         transform="matrix(0.00700359,0,0,-0.00700359,38.535647,81.1441)"
         fill="#000000"
         stroke="none"
         id="g330"
         style="fill:#000000">
        <path
           d="m 2805,6509 c -307,-42 -584,-185 -803,-413 -193,-202 -309,-435 -359,-721 -19,-111 -13,-383 11,-490 60,-268 183,-492 373,-682 l 102,-103 -120,-61 c -229,-117 -326,-260 -428,-629 -54,-198 -125,-548 -126,-630 -1,-47 -10,-128 -19,-180 -9,-52 -16,-116 -16,-141 v -46 l -147,-6 c -113,-4 -164,-10 -218,-27 -67,-21 -75,-27 -187,-143 -80,-82 -119,-130 -124,-151 -3,-17 -16,-41 -28,-54 -29,-32 -34,-153 -12,-256 16,-72 16,-78 -4,-162 -24,-103 -40,-126 -81,-117 -18,3 -38,-1 -54,-11 -14,-9 -30,-14 -36,-10 -15,9 -59,-5 -59,-19 0,-9 -11,-12 -35,-9 -21,3 -35,0 -35,-7 0,-6 -8,-11 -19,-11 -10,0 -24,-6 -30,-14 -7,-8 -34,-17 -61,-21 -28,-4 -53,-11 -56,-16 -3,-5 -16,-6 -29,-3 -12,3 -26,1 -30,-6 -4,-6 -15,-8 -25,-5 -12,4 -22,-1 -29,-13 -7,-14 -18,-18 -36,-15 -15,3 -25,1 -25,-6 0,-6 -11,-16 -25,-21 C 21,1305 7,1293 3,1283 -9,1251 20,1154 77,1040 124,945 147,911 214,842 595,444 1198,172 1940,61 2236,17 2407,6 2810,6 c 555,-1 961,35 1565,139 438,75 1095,226 1136,262 48,40 126,267 159,458 23,133 42,406 32,455 -7,30 -12,35 -40,38 -19,2 -32,9 -32,17 0,7 -9,17 -21,20 -12,4 -30,16 -40,26 -10,10 -30,19 -43,19 -13,0 -26,5 -28,11 -2,6 -19,14 -37,17 -31,7 -35,12 -48,62 -7,30 -27,75 -43,100 -16,25 -40,77 -54,116 -15,40 -42,106 -61,148 -19,43 -35,85 -35,94 0,22 -33,85 -68,129 -31,39 -136,113 -161,113 -9,0 -26,16 -38,34 -43,66 -139,118 -243,130 -120,14 -178,28 -205,50 -26,21 -28,27 -30,117 -1,52 -10,123 -19,159 -9,36 -25,135 -36,220 -42,318 -135,683 -228,901 -40,93 -137,172 -275,225 -40,15 -74,29 -76,30 -2,2 41,47 95,101 213,211 345,471 391,768 18,119 13,352 -11,460 -119,549 -527,957 -1071,1070 -95,20 -341,28 -440,14 z m 446,-302 c 213,-56 377,-150 529,-306 146,-150 236,-310 292,-522 20,-73 22,-109 22,-264 0,-162 -3,-190 -27,-278 -60,-223 -185,-423 -360,-574 l -72,-63 h -66 c -60,0 -70,3 -113,35 -44,34 -46,38 -46,85 0,27 -5,82 -11,122 -11,73 -10,74 26,156 42,95 65,192 65,272 -1,61 -16,90 -49,90 -17,0 -21,4 -17,18 8,26 18,113 17,148 -2,59 -58,164 -88,164 -8,0 -28,11 -45,25 -16,14 -36,25 -44,25 -8,0 -14,5 -14,10 0,6 -5,10 -11,10 -6,0 -23,11 -37,25 -71,65 -99,85 -119,85 -12,0 -24,4 -27,8 -9,15 -248,7 -280,-8 -16,-8 -52,-38 -79,-67 -28,-29 -55,-53 -62,-53 -11,0 -47,-25 -118,-82 -49,-39 -65,-86 -62,-177 2,-44 6,-89 10,-100 4,-13 -3,-28 -21,-46 -26,-26 -27,-29 -21,-119 4,-68 14,-116 37,-182 37,-103 45,-165 35,-278 -7,-81 -7,-81 -48,-112 -23,-17 -56,-38 -74,-47 l -32,-17 -74,59 c -226,180 -381,471 -405,766 -28,335 78,638 306,877 155,162 338,268 549,317 124,29 131,30 293,26 115,-2 165,-8 241,-28 z m 88,-1797 c 12,-81 8,-111 -12,-91 -14,14 -23,171 -9,171 5,0 15,-36 21,-80 z m -774,-69 c -16,-15 -16,-12 -10,39 10,88 20,102 23,36 2,-45 -1,-63 -13,-75 z"
           id="path326"
           style="fill:#000000" />
      </g>
      <path
         d="m 32.179924,-1.5750496 c 0.251743,0.260136 0.394399,0.65453376 0.394399,1.10767426 0,0.2265703 0.02517,0.2601359 0.08391,0.1678276 0.151047,-0.2181757 0.335661,0.1426564 0.344051,0.6629283 0,0.4027865 0.01679,0.4447468 0.100699,0.3104849 0.360832,-0.5874032 0.730056,-0.7048827 0.97341,-0.3020903 0.08391,0.1342619 0.167827,0.2265643 0.201395,0.2013932 0.07552,-0.075523 0.377616,0.050324 0.646141,0.2769184 L 35.175674,1.0598687 V 0.76616706 c 0,-0.159433 0.05874,-0.3356551 0.125871,-0.3943919 0.10909,-0.092308 0.176222,-0.067135 0.402791,0.1510451 0.151047,0.1510452 0.302093,0.2685238 0.335659,0.2685238 0.03356,0 0.176219,-0.083912 0.318874,-0.18461 l 0.251746,-0.1846167 0.302092,0.3104849 c 0.159438,0.1762213 0.318875,0.30209534 0.35244,0.29370074 0.537054,-0.28530704 0.520272,-0.27691244 0.679708,-0.083912 0.08391,0.1007029 0.167831,0.1846167 0.193004,0.1846167 0.01679,0 0.08391,-0.2097878 0.142657,-0.4615351 0.209786,-0.881104 0.629359,-1.2503257 0.855929,-0.7468362 0.100697,0.2181756 0.100697,0.2181756 0.193004,-0.1426565 0.12587,-0.5202719 0.302092,-0.5202719 0.79719,0 0.461528,0.4867062 0.503486,0.4615292 0.503486,-0.3356619 0,-0.6041848 0.07552,-0.6293567 0.780408,-0.1929986 0.268527,0.1678275 0.511877,0.2769192 0.53705,0.2517413 0.02518,-0.025191 0.06714,-0.2349581 0.09231,-0.4699229 0.01679,-0.234959 0.07552,-0.4447468 0.117481,-0.4699179 0.04196,-0.033563 0.260134,0.1426506 0.486705,0.3692208 l 0.411181,0.4279635 0.09231,-0.310484 c 0.05035,-0.1678276 0.109088,-0.3608321 0.134262,-0.4195689 0.05875,-0.1930054 0.352443,0.050315 0.62097,0.5118773 0.184612,0.3272673 0.251743,0.38601 0.251743,0.2433526 0,-0.1090907 0.05035,-0.1846099 0.125872,-0.1846099 0.167828,0 0.35244,0.3104781 0.427964,0.7048818 0.05035,0.2769192 0.06714,0.3020903 0.142656,0.1678284 0.109089,-0.2097878 0.402789,-0.5370551 0.486705,-0.5370551 0.109089,0 0.243351,0.5286665 0.243351,0.981801 0,0.4195749 0.0084,0.4447468 0.159439,0.360833 0.243352,-0.1258681 0.260134,-0.1090916 0.260134,0.209787 0,0.3272673 0.01679,0.3356619 0.251744,0.1930054 0.21818,-0.1426564 0.276919,-0.058746 0.318877,0.4615284 l 0.03356,0.4447467 0.276919,-0.033563 c 0.251743,-0.033563 0.268527,-0.016811 0.234962,0.1762222 -0.04196,0.1930045 -0.0168,0.2097878 0.243351,0.2013932 0.260135,-0.016752 0.285311,0 0.352442,0.3272673 l 0.07552,0.3524435 0.646142,0.033563 c 0.461529,0.025191 0.738448,0.092308 0.948236,0.2181765 l 0.302093,0.1762222 0.05874,-0.1846108 c 0.07552,-0.2433536 0.285308,-0.4783117 0.427965,-0.4783117 0.06714,0 0.234959,0.1090849 0.360832,0.2433468 l 0.243354,0.2433535 0.0923,-0.285307 c 0.05875,-0.1594397 0.142655,-0.2853129 0.201396,-0.2853129 0.193004,0 0.528663,0.3188777 0.637752,0.6041856 0.06713,0.1510502 0.11748,0.285313 0.134262,0.3020954 0.0084,0.016811 0.10909,-0.067135 0.226569,-0.1846109 0.125873,-0.1174845 0.276919,-0.2181815 0.352442,-0.2181815 0.201396,0 0.545447,0.3776154 0.595793,0.671317 0.08391,0.4111802 0.184612,0.3692267 0.243354,-0.1090857 0.07552,-0.6209681 0.151047,-0.7216643 0.369224,-0.5286657 0.100697,0.092308 0.17622,0.2181816 0.17622,0.2937017 0.0084,0.075523 0.07552,0 0.151047,-0.1594398 0.11748,-0.2349589 0.193003,-0.2936957 0.394399,-0.2936957 0.193005,0 0.276919,0.058738 0.419573,0.3104849 l 0.176221,0.3104781 0.310484,-0.981801 c 0.285308,-0.9230584 0.738448,-1.8628992 0.881105,-1.8628992 0.159436,0 0.444747,0.4195689 0.595793,0.8475324 l 0.151047,0.4531405 0.268526,-0.855927 c 0.142655,-0.4699229 0.302093,-0.881104 0.35244,-0.906281 0.151046,-0.100697 0.302093,0.1174795 0.453139,0.6545338 0.151047,0.5202718 0.151047,0.5202718 0.22657,0.2517472 0.151046,-0.5874024 0.654534,-0.4867062 0.654534,0.1258741 l 0.0084,0.3104781 0.125872,-0.2349589 c 0.234959,-0.4363581 0.486704,-0.1678276 0.495094,0.5286605 0,0.2685306 0.03356,0.4699238 0.06713,0.4447519 0.07552,-0.041943 0.310482,0.1258681 0.310482,0.2265652 0,0.033563 -0.134263,0.260135 -0.302093,0.5034886 -0.293701,0.4195748 -0.293701,0.4363581 -0.151046,0.6545337 0.184614,0.3020962 0.469923,0.6041857 0.553838,0.6041857 0.03356,0 0.06714,-0.058738 0.06714,-0.1258732 0,-0.075523 0.09231,-0.1762163 0.209785,-0.2265652 0.310485,-0.1426565 0.604185,0.025191 0.797189,0.4531354 0.134265,0.3104841 0.159438,0.3272665 0.159438,0.1426565 0.0084,-0.1174795 0.05875,-0.285307 0.125873,-0.3692267 0.10909,-0.1510452 0.125871,-0.1510452 0.562228,0.067135 0.386008,0.2013933 0.453139,0.2181765 0.511879,0.1006971 0.100699,-0.1762222 0.184611,-0.1594398 0.486705,0.1006962 0.251744,0.2097878 0.293701,0.2181765 0.620968,0.125874 0.486705,-0.1342678 0.579011,0.00836 0.528663,0.7720132 -0.05035,0.7216651 -0.0084,0.881104 0.201395,0.8307559 0.134264,-0.033563 0.159437,0 0.159437,0.2181766 0,0.1426564 0.03356,0.2601351 0.08391,0.2601351 0.04196,0 0.08391,-0.041943 0.08391,-0.083912 0,-0.1426565 0.772014,-0.5874025 1.023758,-0.5874025 0.302093,0 0.436357,0.2517414 0.386008,0.7636246 -0.02517,0.2265644 -0.03356,0.4111811 -0.01679,0.4111811 0.01679,0 0.125871,-0.092308 0.251744,-0.2097878 0.285309,-0.2685297 0.57901,-0.2685297 0.746839,-0.00836 0.117482,0.1846167 0.117482,0.2349648 0.0084,0.4951007 -0.100697,0.26013 -0.100697,0.2936957 0,0.2517414 0.06714,-0.025191 0.176221,0.00836 0.251744,0.067135 0.167829,0.1342619 0.100698,0.5370543 -0.184612,1.0992805 -0.159438,0.3104841 -0.176221,0.4027924 -0.08391,0.4027924 0.06713,0 0.142655,0.075524 0.17622,0.1594389 0.05035,0.1594339 0.05874,0.1510452 0.40279,-0.041943 0.637752,-0.360833 1.065715,-0.2265711 1.065715,0.3356611 v 0.218172 l 0.167828,-0.167827 c 0.18461,-0.184616 0.511877,-0.3356611 0.721665,-0.3356611 0.08391,0 0.117479,0.1006962 0.117479,0.3188781 0,0.318873 0,0.318873 0.293701,0.285307 0.209788,-0.02519 0.30209,0 0.34405,0.100697 0.02519,0.07552 0.100697,0.134268 0.167828,0.134268 0.05875,0 0.159439,0.07551 0.218182,0.159433 0.117479,0.167834 0.117479,0.167834 0.218175,0 0.109092,-0.167827 0.436358,-0.22657 0.436358,-0.07551 0,0.04194 0.04194,0.08391 0.0923,0.08391 0.04194,0 0.05875,-0.03356 0.03356,-0.08391 -0.0923,-0.142656 0.125874,-0.7468419 0.302095,-0.8475389 0.285308,-0.1510452 0.579009,-0.016752 0.713272,0.3104839 0.06713,0.15944 0.100702,0.335656 0.07552,0.394399 -0.02519,0.05875 0.01675,0.01675 0.09231,-0.09231 0.243352,-0.327268 0.704881,-0.201393 0.864321,0.234965 0.05874,0.176216 0.134262,0.251741 0.234959,0.234959 0.193005,-0.03356 0.394398,0.377614 0.402793,0.830755 0,0.427964 0.07551,0.46153 0.201393,0.09231 0.134262,-0.369226 0.478311,-0.79719 0.772013,-0.948235 l 0.243353,-0.134268 v 0.360833 c 0,0.579014 0.07552,0.629363 0.57062,0.419575 0.57062,-0.251741 0.629356,-0.243353 0.562226,0.08391 l -0.05874,0.260136 0.427964,-0.05032 c 0.344049,-0.04194 0.427963,-0.02519 0.427963,0.07552 0,0.06713 -0.08391,0.151044 -0.193004,0.192999 -0.142651,0.05875 -0.04194,0.08392 0.444746,0.142656 0.688105,0.08391 0.83915,0.22657 0.511884,0.50349 -0.151045,0.134261 -0.151045,0.159438 -0.03356,0.335657 0.08391,0.134264 0.234958,0.209787 0.495094,0.243353 0.201393,0.02518 0.537055,0.06714 0.746842,0.09231 0.318872,0.03356 0.377615,0.06714 0.335656,0.193004 -0.02519,0.08391 0.0084,0.201395 0.08391,0.260135 0.167833,0.142655 0.159439,0.201395 -0.08391,0.486705 -0.285307,0.335659 -0.268525,0.444748 0.04194,0.377616 0.234964,-0.04196 0.251747,-0.03356 0.251747,0.226569 0,0.209787 0.03356,0.260136 0.125868,0.218179 0.06713,-0.02517 0.176222,-0.07552 0.243353,-0.100698 0.07552,-0.02517 0.134262,0.03356 0.167828,0.167829 l 0.05037,0.218178 0.335661,-0.167829 c 0.461529,-0.234961 0.57062,-0.218178 0.629357,0.109089 0.05037,0.260135 0.07552,0.276918 0.352444,0.243352 0.268525,-0.03356 0.293702,-0.02517 0.234959,0.142656 -0.05031,0.167829 -0.02519,0.17622 0.411187,0.17622 0.478312,0 0.637751,0.09231 0.478312,0.285309 -0.07552,0.09231 0,0.125873 0.36922,0.16783 0.84754,0.100698 1.124458,0.386007 0.671317,0.6881 -0.251741,0.16783 -0.268524,0.28531 -0.03356,0.28531 0.09231,0 0.251748,0.04195 0.352445,0.100697 0.176222,0.09231 0.176222,0.09231 0.01675,0.151047 -0.134263,0.05035 -0.142657,0.07552 -0.04194,0.109089 0.662923,0.218178 0.939841,0.352442 0.990189,0.46153 0.02519,0.07552 0,0.151047 -0.05031,0.16783 -0.134262,0.04196 -0.125868,0.184612 0.0084,0.184612 0.167834,0 0.42797,0.310484 0.302096,0.352442 -0.05032,0.01678 0.05032,0.07552 0.23496,0.134263 0.43635,0.125872 0.7804,0.453139 0.7804,0.730057 0,0.251744 -0.18461,0.276918 -0.64614,0.08391 -0.16783,-0.06713 -0.310478,-0.11748 -0.310478,-0.109089 -0.134267,0.360833 -0.537054,0.503488 -0.897887,0.318876 -0.142656,-0.07552 -0.193005,-0.07552 -0.243353,0 -0.05031,0.07552 -0.184616,0.09231 -0.444746,0.05874 -0.38601,-0.05035 -0.38601,-0.05035 -0.411187,0.218178 -0.02519,0.243352 -0.05874,0.268527 -0.402786,0.335659 -0.738448,0.125871 -2.349612,-0.243353 -2.349612,-0.553837 0,-0.03357 -0.06713,-0.0084 -0.142657,0.07552 -0.117479,0.117481 -0.243352,0.134264 -0.763618,0.08391 -0.587403,-0.05035 -0.612581,-0.04195 -0.562232,0.117481 0.04194,0.134263 0.01675,0.167829 -0.125868,0.167829 -0.151051,0 -0.176222,0.03357 -0.134268,0.184612 0.02519,0.109089 0.05032,0.234961 0.05032,0.293701 0,0.05035 0.07552,0.07552 0.167834,0.05035 0.134262,-0.03356 0.176216,0.01678 0.26013,0.335659 0.09231,0.369224 0.09231,0.377615 0.251747,0.218178 0.08391,-0.08392 0.251742,-0.159438 0.369222,-0.159438 0.184616,0 0.209787,0.03357 0.209787,0.335658 0,0.318876 0.100697,0.436357 0.209788,0.251745 0.159438,-0.260136 1.468507,-0.302093 1.468507,-0.04196 0,0.08391 0.07552,0.100697 0.285307,0.06713 0.402792,-0.06713 0.746842,0.03357 0.688099,0.184612 -0.03356,0.100697 0.04194,0.125873 0.360838,0.125873 0.218177,0 0.520266,0.04196 0.671317,0.0923 0.285307,0.100699 0.34405,0.302093 0.109085,0.377616 -0.07551,0.02518 -0.201393,0.06713 -0.268524,0.09231 -0.09231,0.02517 -0.06713,0.08391 0.11748,0.209786 l 0.234958,0.176222 -0.192999,0.109088 c -0.10909,0.05874 -0.293701,0.117481 -0.411181,0.117481 -0.193004,0.0084 -0.193004,0.01677 -0.04194,0.08391 0.0923,0.03357 0.386003,0.125873 0.654534,0.209788 0.419569,0.117481 0.4867,0.159439 0.461529,0.318874 -0.01675,0.100699 -0.109091,0.21818 -0.218182,0.268528 -0.226565,0.100699 -0.226565,0.125872 -0.0084,0.495096 0.167833,0.293701 0.167833,0.293701 0,0.377616 -0.0923,0.05035 -0.226565,0.09231 -0.310485,0.09231 -0.117479,0 -0.117479,0.02517 -0.03356,0.125871 0.167833,0.201395 0.01675,0.28531 -0.570615,0.344049 -0.469923,0.05035 -0.520271,0.07552 -0.520271,0.251746 0,0.159436 -0.05875,0.201393 -0.302096,0.251743 -0.285307,0.05035 -0.788797,-0.02517 -1.14124,-0.17622 -0.125868,-0.05035 -0.142651,-0.02518 -0.100697,0.184612 0.06713,0.335658 -0.151045,0.562228 -0.461529,0.486705 -0.251742,-0.06714 -0.763625,-0.427966 -0.763625,-0.553836 0,-0.04196 -0.03356,-0.07552 -0.07552,-0.07552 -0.05032,0 -0.09231,0.142655 -0.109091,0.310483 -0.01675,0.22657 -0.06713,0.327269 -0.176222,0.34405 -0.293701,0.05875 -0.721665,-0.07552 -0.981801,-0.285308 -0.201393,-0.176223 -0.251742,-0.184612 -0.251742,-0.08391 0,0.352442 -0.620968,0.201395 -0.965018,-0.22657 l -0.192929,-0.260159 -0.07553,0.2937 c -0.100696,0.386008 -0.427963,0.40279 -0.612573,0.03357 -0.100697,-0.201394 -0.167829,-0.243351 -0.352445,-0.22657 -0.176216,0.02518 -0.251741,-0.02517 -0.352438,-0.22657 -0.100696,-0.184611 -0.176222,-0.234961 -0.302095,-0.201393 l -0.176217,0.05035 0.167828,0.151046 c 0.251741,0.234962 0.134262,0.411182 -0.268531,0.411182 h -0.344049 l 0.369226,0.377615 c 0.310484,0.318877 0.352445,0.394401 0.251743,0.469924 -0.06714,0.04196 -0.310485,0.06714 -0.528661,0.04196 -0.243354,-0.02517 -0.377615,-0.0084 -0.352438,0.04196 0.08391,0.134262 -0.218182,0.193003 -0.478318,0.09231 -0.201393,-0.07552 -0.243353,-0.06714 -0.201393,0.02517 0.01675,0.05874 0.06713,0.251743 0.100696,0.411181 0.04194,0.268527 0.03356,0.302093 -0.125873,0.302093 -0.100697,0 -0.243348,-0.07552 -0.318873,-0.159439 -0.125874,-0.159438 -0.142656,-0.159438 -0.243353,-0.02517 -0.09231,0.134262 -0.125874,0.12587 -0.34405,-0.09231 -0.293702,-0.268527 -0.360832,-0.285309 -0.360832,-0.05874 0,0.293701 -0.377616,0.209787 -0.797191,-0.176222 l -0.377615,-0.35244 v 0.2937 0.293701 l -0.73006,-0.193004 c -0.469917,-0.125873 -0.839144,-0.184612 -1.040537,-0.151047 -0.209788,0.03356 -0.419575,0 -0.704882,-0.125872 -0.218183,-0.100696 -0.42797,-0.17622 -0.469924,-0.17622 -0.04194,0 -0.07552,0.151046 -0.07552,0.327266 0,0.45314 -0.117479,0.495097 -0.310484,0.117481 -0.10909,-0.234959 -0.22657,-0.327266 -0.444747,-0.386005 -0.3944,-0.100699 -0.478314,-0.176223 -0.537054,-0.545446 C 67.373808,26.30985 67.23115,25.9658 67.12206,25.9658 c -0.05035,0 -0.05874,-0.142654 -0.03356,-0.369224 0.05035,-0.318874 0.03356,-0.377615 -0.10909,-0.411181 -0.100697,-0.02517 -0.167829,0 -0.167829,0.06713 0,0.209788 -0.28531,0.21818 -0.696492,0.0084 -0.394398,-0.193004 -0.427964,-0.193004 -0.637751,-0.06713 -0.134263,0.08392 -0.209786,0.201396 -0.193003,0.285308 0.01679,0.09231 -0.02517,0.151047 -0.100698,0.151047 -0.100698,0 -0.06713,0.09231 0.134264,0.386008 0.327267,0.453139 0.251744,0.562228 -0.369224,0.51188 l -0.394399,-0.03356 0.243352,0.285311 c 0.142655,0.151046 0.251744,0.318874 0.251744,0.360831 0,0.1007 -0.704883,0.201396 -1.023759,0.134266 -0.209786,-0.04196 -0.243353,-0.03356 -0.159437,0.06713 0.07552,0.09231 0.07552,0.134262 -0.0084,0.184612 -0.184611,0.117481 -0.897886,0.05875 -1.124455,-0.09231 -0.209786,-0.134264 -0.218178,-0.134264 -0.159439,0.03356 0.05035,0.159437 0.0168,0.176221 -0.310484,0.176221 -0.201394,0 -0.503486,-0.07552 -0.679709,-0.159439 -0.243384,-0.125873 -0.310515,-0.134265 -0.310515,-0.04196 0,0.16783 -0.830755,0.159438 -1.065716,-0.0084 -0.159439,-0.117478 -0.17622,-0.109088 -0.218178,0.125873 -0.06714,0.293701 -0.478315,0.545447 -0.780408,0.469923 -0.193003,-0.05035 -0.268527,-0.16783 -0.411181,-0.587404 -0.03356,-0.12587 -0.06713,-0.142654 -0.142654,-0.06713 -0.05874,0.05875 -0.167831,0.100696 -0.251744,0.100696 -0.176222,0 -0.193003,0.09231 -0.05874,0.22657 0.05874,0.05875 0.07552,0.159438 0.04196,0.243353 -0.04196,0.109089 -0.134262,0.134263 -0.461531,0.100697 -0.377615,-0.03356 -0.402789,-0.02517 -0.327266,0.1007 0.05035,0.08391 0.06714,0.209784 0.03356,0.293701 -0.07552,0.209785 -0.587401,0.109088 -1.032151,-0.209789 -0.318874,-0.218178 -0.360831,-0.22657 -0.360831,-0.0923 0,0.100696 -0.08391,0.176219 -0.218178,0.209785 -0.218178,0.05875 -0.755232,-0.06714 -0.906278,-0.209785 -0.142655,-0.134266 -0.218178,-0.08391 -0.218178,0.134262 0,0.184612 -0.03356,0.209787 -0.327268,0.209787 -0.193004,0 -0.520271,-0.100699 -0.822363,-0.260135 l -0.503491,-0.260135 -0.620966,0.310483 c -1.09089,0.545445 -2.23213,1.376201 -3.339804,2.425133 -0.579009,0.562228 -1.367809,1.233544 -1.728641,1.493682 -1.275502,0.897886 -1.879688,1.116064 -3.650285,1.325848 -0.788798,0.09231 -6.033465,1.376202 -6.729955,1.653121 -0.528663,0.201393 -0.805582,0.419574 -0.981801,0.763621 -0.218178,0.419574 -0.318877,0.50349 -1.493682,1.149632 -1.074106,0.595794 -1.871296,1.233544 -2.542612,2.039126 -0.469923,0.562228 -1.032151,1.418155 -1.149631,1.753817 -0.193004,0.528662 -0.553837,2.467088 -0.595794,3.171973 -0.0168,0.411181 -0.07552,0.780405 -0.125873,0.813971 -0.06713,0.04196 -0.260135,2.660094 -0.193003,2.727226 0.06713,0.07552 0.855931,-0.74684 1.023758,-1.074109 0.109089,-0.226569 0.234962,-0.411181 0.268528,-0.411181 0.03356,0 0.151045,0.05874 0.251745,0.134264 0.402789,0.276917 0.08391,1.359418 -0.528662,1.762207 -0.260138,0.167828 -0.604185,0.730059 -0.772016,1.275502 -0.226569,0.755232 -0.360832,2.17339 -0.444747,4.799916 -0.05035,1.451725 -0.125873,2.92862 -0.16783,3.272669 -0.117481,0.847541 -0.629359,2.769185 -1.309068,4.909007 -0.847538,2.693661 -0.788797,2.223738 -0.881104,7.090788 l -0.07554,4.321533 0.427965,2.13982 c 0.234961,1.174806 0.453139,2.28248 0.495096,2.458703 0.06714,0.318872 0.05874,0.327267 -0.394399,0.620968 -0.327267,0.226571 -0.419574,0.327267 -0.344051,0.386004 0.08391,0.05031 0.07552,0.05875 -0.03356,0.03356 -0.07552,-0.02519 -0.327266,0.02519 -0.562228,0.117485 -0.243351,0.0923 -0.671316,0.167828 -0.998583,0.176216 l -0.56223,0.0084 0.545446,0.06713 c 0.436355,0.04194 0.344051,0.05037 -0.46153,0.04194 -0.889495,-0.0084 -1.048933,0.01675 -1.258718,0.15944 -0.478315,0.318872 -2.634922,0.167828 -3.356588,-0.234965 -0.09231,-0.05032 -0.260135,-0.109085 -0.377616,-0.117479 -0.302092,-0.02519 -0.914667,-0.268525 -1.31746,-0.520272 -0.335657,-0.201393 -0.5874,-0.595791 -0.461528,-0.721665 0.03356,-0.02519 0,-0.08391 -0.06714,-0.125874 -0.0923,-0.05874 -0.01679,-0.08391 0.251746,-0.100696 0.369223,-0.0084 0.369223,-0.0084 -0.1007,-0.05875 l -0.46992,-0.05032 0.629359,-0.881104 c 1.31746,-1.862905 1.577595,-2.676873 1.787383,-5.622277 0.167827,-2.416741 0.386007,-3.49085 0.981801,-4.942572 0.260135,-0.612577 0.738448,-1.560812 1.065716,-2.097867 1.31746,-2.123019 1.83773,-3.163562 2.769181,-5.597086 0.923063,-2.416741 0.97341,-3.26428 0.478316,-8.122935 -0.142657,-1.384593 -0.302093,-3.163581 -0.352443,-3.96077 -0.117481,-1.753817 -0.05874,-2.173391 0.646143,-4.481044 l 0.46992,-1.552421 0.0084,-1.636334 0.01679,-1.636335 -0.243355,-0.503489 C 26.482193,36.55574 26.104577,36.094209 25.231865,35.196323 24.57733,34.525006 23.713009,33.534814 23.318612,32.997759 21.715841,30.841153 18.95505,28.802027 16.840401,28.197842 16.101953,27.988056 13.928563,27.56009 13.601297,27.56009 c -0.109089,0 -0.159438,0.05035 -0.142655,0.142655 0.02518,0.125873 -0.05035,0.151046 -0.453139,0.176222 -0.310485,0.01677 -0.57062,-0.01679 -0.721666,-0.100698 -0.226575,-0.117473 -0.260141,-0.117473 -0.394405,0.03357 -0.209785,0.234959 -0.881102,0.234959 -0.939843,0.0084 -0.04196,-0.159437 -0.05874,-0.159437 -0.327267,-0.02518 -0.352442,0.16783 -0.7300594,0.06714 -0.7720164,-0.209785 -0.02517,-0.167831 -0.04195,-0.176223 -0.310483,-0.05875 -0.159438,0.06713 -0.46153,0.117481 -0.679708,0.117481 h -0.38606 l 0.02517,-0.360832 0.03356,-0.369226 -0.335658,0.151046 c -0.184613,0.08391 -0.57062,0.176222 -0.864321,0.209788 l -0.52027,0.05874 v -0.243355 c 0,-0.134264 0.05874,-0.318876 0.125873,-0.402791 0.06714,-0.09231 0.125871,-0.193004 0.125871,-0.234959 0,-0.03357 -0.268528,-0.06713 -0.587402,-0.06713 -0.327269,0 -0.587404,-0.02517 -0.587404,-0.05874 0,-0.03357 0.100699,-0.159438 0.21818,-0.285311 L 6.3174386,25.8231 5.9566066,25.76436 c -0.201396,-0.03357 -0.444749,-0.117481 -0.545445,-0.184612 -0.10909,-0.06713 -0.62936,-0.184612 -1.166414,-0.260135 -0.948235,-0.142657 -0.973409,-0.142657 -1.09089,0.01677 -0.06714,0.08392 -0.117481,0.243354 -0.117481,0.344051 0,0.151046 -0.05874,0.201395 -0.2937,0.251742 -0.159438,0.02518 -0.419574,0.02518 -0.57062,0 -0.268527,-0.05035 -0.285312,-0.04196 -0.377616,0.268528 -0.134265,0.444747 -0.595793,0.671316 -1.09928204,0.520269 -0.209788,-0.05874 -0.318877,-0.05035 -0.478312,0.05875 -0.117482,0.07552 -0.461531,0.151047 -0.780408,0.176221 -0.56222796,0.03356 -0.57061996,0.03356 -0.87271296,-0.268527 -0.167828,-0.167828 -0.352439,-0.302093 -0.402789,-0.302093 -0.06714,0 -0.06714,-0.03357 0.0084,-0.12587 0.125871,-0.151046 0.06713,-0.159438 -0.780407,-0.125873 -0.469921,0.01679 -0.562228,-0.0084 -0.562228,-0.117481 0,-0.184612 -0.604186,-0.184612 -0.889494,0 -0.193005,0.125873 -0.5957935,0.134265 -1.1244558,0.01679 -0.083912,-0.01679 -0.1342652,0.05035 -0.151046,0.201394 -0.050349,0.411181 -0.5454463,0.419573 -1.0237596,0.0084 l -0.2517756,-0.209809 v 0.335659 c 0,0.495096 -0.1426539,0.562227 -0.6209672,0.310484 -0.2181765,-0.117481 -0.4027882,-0.209788 -0.4195732,-0.209788 -0.016794,0 -0.067135,0.151046 -0.1258715,0.335659 -0.050349,0.184612 -0.1846133,0.394399 -0.2937016,0.469923 -0.1762196,0.109088 -0.2349606,0.109088 -0.4950957,0 -0.1594389,-0.06714 -0.3272665,-0.184613 -0.3692242,-0.260136 -0.067135,-0.11748 -0.1174803,-0.09231 -0.3188769,0.184612 -0.5034861,0.662924 -0.7132739,0.654532 -0.7132739,-0.03356 v -0.461534 l -0.2433514,0.260135 c -0.302093,0.327267 -0.427965,0.327267 -0.427965,0.0084 0,-0.302092 0,-0.302092 -0.394398,-0.08391 -0.176222,0.09231 -0.360834,0.16783 -0.419573,0.16783 -0.109089,0 -0.22657,-0.293702 -0.159439,-0.411183 0.02517,-0.04195 -0.02517,-0.0923 -0.11748,-0.117478 -0.360832,-0.09235 -0.100697,-0.671361 0.360832,-0.805624 l 0.268527,-0.07552 -0.310482,-0.0084 c -0.377616,-0.0084 -0.461531,-0.117481 -0.243354,-0.335659 0.159438,-0.159438 0.159438,-0.159438 -0.05035,-0.218177 -0.327267,-0.07552 -0.08391,-0.293701 0.34405,-0.293701 0.22657,0 0.302093,-0.02518 0.22657,-0.07552 -0.09231,-0.05874 -0.07552,-0.08392 0.06713,-0.134264 0.09231,-0.02517 0.209787,-0.02517 0.260136,0 0.109089,0.06713 0.109089,-0.06713 -0.0084,-0.184613 -0.125873,-0.125872 -0.01679,-0.444747 0.159438,-0.453139 0.117479,0 0.109089,-0.01679 -0.02517,-0.06713 -0.100697,-0.04196 -0.276916,-0.02518 -0.453139,0.04196 -0.34405,0.142654 -0.612577,0.151046 -0.746839,0.01677 -0.06713,-0.06713 -0.100697,-0.07552 -0.100697,-0.0084 0,0.201396 -0.268527,0.360834 -0.604186,0.360834 -0.268527,0 -0.34405,-0.03357 -0.377615,-0.16783 -0.03356,-0.117481 -0.09231,-0.159436 -0.201397,-0.12587 -0.176219,0.05874 -0.746839,-0.159439 -0.889493,-0.344051 -0.08391,-0.11748 -0.117481,-0.109088 -0.268527,0.04196 -0.209788,0.209785 -0.293704,0.218177 -0.461531,0.05035 -0.151047,-0.159436 -0.218178,-0.159436 -0.218178,-0.0084 0,0.167828 -0.327269,0.386006 -0.478315,0.327267 -0.159436,-0.05874 -0.444747,-0.721666 -0.444747,-1.015367 0,-0.218177 0,-0.218177 -0.151046,0.06713 -0.218178,0.40279 -0.327267,0.40279 -0.503489,0.0084 -0.17622,-0.386008 -0.268525,-0.369223 -0.268525,0.05035 0,0.251745 -0.02518,0.276919 -0.251745,0.276919 h -0.251743 v -0.637725 -0.637752 l -0.360835,0.05035 c -0.528661,0.07552 -0.595793,-0.0084 -0.537051,-0.604187 l 0.05874,-0.503488 -0.260135,0.06713 c -0.201396,0.05874 -0.260135,0.05035 -0.302093,-0.05874 -0.04196,-0.109089 0.01679,-0.28531 0.360833,-1.074108 0.02517,-0.05874 -0.0923,-0.07552 -0.310483,-0.05874 -0.402792,0.04196 -0.553838,-0.05874 -0.427965,-0.285309 0.07552,-0.151047 0.05035,-0.159438 -0.327266,-0.134264 -0.34405,0.02517 -0.411182,0.0084 -0.411182,-0.11748 0,-0.07552 0.05874,-0.218179 0.142654,-0.302093 0.125871,-0.142655 0.117481,-0.151046 -0.360833,-0.151046 -0.604186,0 -0.788797,-0.09231 -0.620967,-0.293702 0.0923,-0.11748 0.08391,-0.142654 -0.06714,-0.184612 -0.469923,-0.11748 -0.0084,-0.411182 0.855928,-0.545445 0.537054,-0.08391 0.629358,-0.11748 0.478313,-0.184612 -0.251744,-0.109089 -0.22657,-0.369224 0.04196,-0.436356 0.151046,-0.04196 0.184611,-0.08391 0.125872,-0.142655 -0.05035,-0.05035 -0.09231,-0.167829 -0.09231,-0.251744 0,-0.142655 0.05035,-0.159438 0.402792,-0.125872 0.226569,0.02518 0.528662,0.100698 0.671317,0.176221 l 0.268526,0.125872 v -0.251744 c 0,-0.234961 0.02518,-0.251743 0.226569,-0.218178 0.134263,0.02517 0.302093,0.07552 0.377617,0.109089 0.11748,0.04195 0.151045,0.01678 0.151045,-0.100697 0,-0.09231 0.06714,-0.22657 0.142654,-0.293702 0.167829,-0.151046 0.772015,-0.276918 1.166414,-0.243352 0.218177,0.01678 0.260135,-0.0084 0.251743,-0.176221 -0.0084,-0.151047 0.04196,-0.201395 0.22657,-0.218178 0.134265,-0.01679 0.293703,0.01679 0.360834,0.07552 0.100697,0.08392 0.109089,0.07552 0.06714,-0.04196 -0.05874,-0.16783 0.209785,-0.184613 0.755232,-0.04196 0.276918,0.06714 0.495096,0.05874 0.998585,-0.04196 0.35244,-0.07552 0.662924,-0.134264 0.69649,-0.134264 0.02517,0 0.03356,-0.05035 0.0084,-0.11748 -0.02517,-0.06714 0,-0.184612 0.05874,-0.260135 0.08391,-0.117481 0.201396,-0.142655 0.62097,-0.109089 0.411181,0.02518 0.495095,0.01679 0.427965,-0.07552 -0.05035,-0.05874 -0.07552,-0.16783 -0.04196,-0.234962 0.04196,-0.109089 0.134263,-0.125872 0.553836,-0.07552 0.276919,0.03356 0.503488,0.02518 0.503488,-0.01679 0,-0.04196 -0.07552,-0.360833 -0.16783,-0.704883 -0.268528,-1.015368 -0.201398,-1.233545 0.251741,-0.79719 l 0.209789,0.201395 -0.02518,-0.327266 c -0.04196,-0.394397 0.03356,-0.75523 0.151046,-0.75523 0.1258711,0 0.738448,0.579009 0.8978869,0.839143 0.092304,0.159438 0.1846117,0.218179 0.2853079,0.193004 0.092308,-0.02517 0.2517455,0.01679 0.3692242,0.09231 0.2853112,0.193004 0.3776162,0.167829 0.3776162,-0.100698 0,-0.377616 0.1174803,-0.478312 0.5370535,-0.46153 0.2601351,0.0084 0.3608346,-0.01681 0.3356585,-0.08391 -0.075519,-0.218173 0.125878,-0.344047 0.5454511,-0.344047 0.3692242,-0.0084 0.419574,-0.02519 0.4027899,-0.176222 -0.016794,-0.142651 0.04196,-0.176222 0.4447468,-0.209788 0.4447493,-0.04194 0.4615308,-0.05031 0.4363572,-0.276918 -0.033563,-0.268525 0.1342619,-0.30209 0.5202702,-0.100696 0.3188769,0.167833 0.3104849,0.176221 0.251743,-0.201394 -0.1006962,-0.620969 0.2433535,-0.847539 0.8307552,-0.537055 0.151046,0.07552 0.503489,0.360833 0.7888,0.637751 0.293701,0.276919 0.537052,0.486707 0.553835,0.469924 0.01679,-0.01675 0.100697,-0.151045 0.193004,-0.302096 0.193004,-0.327266 0.327267,-0.268524 0.495097,0.193005 0.06714,0.176222 0.11748,0.260136 0.12587,0.176222 0,-0.11748 0.05874,-0.151045 0.22657,-0.125873 0.16783,0.01675 0.285311,0.117479 0.419573,0.360832 l 0.19300396,0.335662 v -0.34405 c 0,-0.327267 0.159439,-0.604186 0.276919,-0.486707 0.02517,0.03356 0.04196,-0.01675 0.04196,-0.100696 -0.03356,-0.411181 0.117481,-0.788797 0.411182,-1.040544 0.260135,-0.234959 0.293701,-0.293702 0.209786,-0.427964 -0.05874,-0.08391 -0.100697,-0.209787 -0.100697,-0.2853066 0,-0.1342678 0.411181,-0.3776154 0.637751,-0.3776154 0.109088,0 0.125872,-0.041943 0.06714,-0.2349649 -0.03356,-0.1258732 -0.06714,-0.3440497 -0.06714,-0.4783116 -0.0084,-0.2433535 0,-0.2517413 0.41118104,-0.2517413 0.285311,0.00836 0.579012,0.083912 0.923063,0.2517413 0.276916,0.1342619 0.537051,0.260136 0.587401,0.2853071 0.04196,0.016811 -0.07552,-0.1426506 -0.268527,-0.3608322 -0.184612,-0.2097878 -0.360832,-0.4615292 -0.386008,-0.5454429 -0.05874,-0.234959 0.125873,-0.5454439 0.335661,-0.5790087 0.218177,-0.033563 0.822362,0.26013 1.124455,0.5370484 l 0.218177,0.2097878 -0.0084,-0.360833 -0.0084,-0.3608321 0.377617,0.00836 c 0.386007,0 0.839146,0.1762163 1.510463,0.5874024 L 5.8475546,8.536612 5.4447656,8.1254317 C 5.2265876,7.8904728 5.0503676,7.6890795 5.0503676,7.6639025 c 0,-0.016752 0.142654,-0.025191 0.318875,-0.00836 0.260135,0.025191 0.369224,-0.016752 0.595793,-0.2265643 0.151046,-0.1426565 0.360834,-0.2601359 0.461531,-0.2601359 0.201396,0 0.545447,0.3272664 0.73845,0.696488 l 0.117478,0.2433524 0.109092,-0.3440497 c 0.243351,-0.8307559 1.124456,-0.7216651 1.241936,0.1510451 0.05035,0.3608322 0.07552,0.3860092 0.268527,0.2685297 0.125871,-0.083912 0.511878,0.050315 0.511878,0.1762222 0,0.033563 0.03356,0.067135 0.06714,0.067135 0.03356,0 0.05035,-0.1342678 0.03356,-0.2937016 -0.03356,-0.2601359 -0.01679,-0.2937016 0.159438,-0.2937016 h 0.184613 L 9.6824556,7.6471539 C 9.5817586,7.5380631 9.4978446,7.387018 9.4978446,7.3114929 c 0,-0.1510452 0.35244,-0.2769133 0.495096,-0.1846109 0.05035,0.025191 0.0923,0.033563 0.0923,0.00836 0,-0.025191 -0.2265692,-0.1594389 -0.5118792,-0.310484 -0.503488,-0.2769184 -0.91467,-0.6629284 -0.91467,-0.8727162 0,-0.159433 0.461531,-0.2349589 1.166414,-0.1929987 0.3188782,0.016752 0.5622282,0 0.5454472,-0.033563 -0.02517,-0.033563 -0.109089,-0.067135 -0.184612,-0.067135 -0.07552,0 -0.3356612,-0.092302 -0.5790132,-0.2013933 -0.612577,-0.285307 -0.696492,-0.6964872 -0.151046,-0.7300589 0.234961,-0.016752 0.201396,-0.016752 0.7468402,0.041943 0.427966,0.050315 0.478313,0.041943 0.394401,-0.067135 -0.142658,-0.176222 -0.08391,-0.5034893 0.100696,-0.5370542 0.260135,-0.050315 0.528662,0.050374 0.939843,0.3608322 0.268528,0.2097877 0.360835,0.2517472 0.302093,0.1342617 -0.05035,-0.092302 -0.0923,-0.3188726 -0.0923,-0.5034826 0,-0.335661 0,-0.335661 0.268525,-0.2853129 0.151046,0.025191 0.344049,0.083912 0.419573,0.1258732 0.109089,0.050324 0.151047,0.041943 0.151047,-0.050315 0,-0.2517473 0.201395,-0.5622322 0.394399,-0.6041857 0.209785,-0.058746 0.74684,0.2181757 1.132848,0.5874025 l 0.234961,0.2097818 V 3.8542007 c 0,-0.159433 0.04196,-0.3104781 0.08391,-0.335655 0.05035,-0.033563 0.260136,0.041943 0.461531,0.1678275 l 0.377615,0.2181757 V 3.6863732 c 0,-0.2433535 0.209788,-0.285307 0.469923,-0.083912 0.209785,0.1594389 0.285309,0.1594389 0.285309,0 0,-0.1762221 0.327268,-0.1594397 0.797189,0.041943 0.486705,0.2097819 0.461531,0.2097819 0.461531,-0.033563 0,-0.1090917 0.06714,-0.285313 0.159438,-0.3944046 0.142655,-0.1762163 0.167828,-0.18461 0.427963,-0.075515 0.151047,0.058746 0.34405,0.2265703 0.427966,0.3692208 0.142654,0.2265703 0.159439,0.2349649 0.159439,0.075523 0,-0.3020962 0.0923,-0.4447467 0.293699,-0.4447467 0.251744,0 0.45314,0.2013932 0.511879,0.5034886 l 0.05035,0.2265652 0.201396,-0.2013933 c 0.243342,-0.2433535 0.369214,-0.1930054 0.369214,0.1510443 0,0.1930054 0.03356,0.2433535 0.142654,0.2265703 0.260136,-0.041943 0.243355,0.3356619 -0.01679,0.4531413 -0.176221,0.083912 -0.193004,0.1090909 -0.08391,0.1678275 0.06714,0.041943 0.125873,0.1846159 0.125873,0.3272673 V 5.2471772 L 20.415122,4.945081 c 0.318875,-0.3608321 0.69649,-0.5706199 0.906278,-0.5034885 0.134262,0.041943 0.159435,-0.016752 0.193004,-0.4615292 0.02518,-0.3776154 0.08391,-0.5538376 0.218177,-0.6880995 0.218178,-0.2181765 0.671316,-0.2349648 0.981801,-0.033563 0.201394,0.1342619 0.209786,0.125874 0.209786,-0.033563 0,-0.310484 0.234962,-0.7552307 0.453139,-0.855927 0.184612,-0.075523 0.243353,-0.067135 0.386008,0.058738 0.09231,0.083912 0.16783,0.209788 0.17622,0.2853131 0,0.075515 0.05035,-0.058746 0.109089,-0.2853131 0.109091,-0.4279634 0.293702,-0.7971902 0.402791,-0.7971902 0.03356,0 0.142654,0.1174845 0.251744,0.2517473 l 0.184611,0.2517413 0.1007,-0.2433526 c 0.134262,-0.310479 0.595793,-0.4867071 0.956625,-0.3524383 0.176222,0.058738 0.327268,0.058738 0.51188,-0.00836 0.251743,-0.083912 0.629359,-0.058738 0.956625,0.067135 0.151046,0.058738 0.159438,0.050315 0.05035,-0.075523 -0.293701,-0.3608322 -0.260135,-2.7859635 0.05035,-3.0880589 0.125871,-0.1342628 0.201393,-0.1426564 0.453139,-0.075523 0.34405,0.100703 1.728641,0.93984676 1.888079,1.15802326 0.100698,0.1258732 0.10909,0.075524 0.117482,-0.3188727 0,-0.66292836 0.06713,-0.83915056 0.302092,-0.83915056 0.134262,0 0.260136,0.092308 0.386005,0.2937017 0.109101,0.1594389 0.209801,0.2937017 0.234974,0.2937017 0.02517,0 0.117481,-0.1174795 0.193003,-0.2517423 0.151047,-0.2517414 0.528663,-0.5034886 0.755233,-0.5034886 0.05874,0 0.209785,0.1090907 0.335658,0.2349648 z M 31.055468,22.625933 c 0.07552,0.125873 0.100697,0.251743 0.05874,0.293701 -0.03356,0.03357 -0.310482,0.05874 -0.612575,0.05035 -0.469923,-0.0084 -0.537054,0.0084 -0.486707,0.12587 0.134265,0.318877 0.142657,0.453139 0.05035,0.520273 -0.151047,0.0923 0.595793,0.788797 1.124455,1.048932 0.881105,0.436355 2.064303,0.503489 2.7524,0.159439 0.545447,-0.27692 1.409767,-0.822366 1.896471,-1.183197 0.285311,-0.209786 0.327269,-0.27692 0.201397,-0.27692 -0.09231,0 -0.218178,-0.05035 -0.268527,-0.11748 -0.07552,-0.08391 -0.16783,-0.0923 -0.419573,-0.02517 -0.268528,0.07552 -0.411182,0.05874 -0.813971,-0.0923 -0.34405,-0.125873 -0.595796,-0.159439 -0.847539,-0.125873 -0.293701,0.04196 -0.377616,0.01677 -0.562228,-0.16783 -0.159438,-0.159437 -0.218177,-0.184612 -0.218177,-0.0923 0,0.0923 -0.05035,0.109089 -0.193005,0.06713 -0.226568,-0.06713 -0.562227,-0.285308 -0.562227,-0.360831 0,-0.02518 -0.276919,-0.05035 -0.612577,-0.05035 h -0.61258 z m 12.0921,1.577594 c -0.134265,0 -0.310485,0.07552 -0.3944,0.159439 -0.100696,0.109089 -0.251742,0.159438 -0.461531,0.151046 -0.411181,-0.0084 -0.453139,0.05035 -0.243351,0.34405 0.218177,0.310485 0.218177,0.35244 0,0.35244 -0.159438,0 -0.16783,0.03357 -0.125873,0.285311 0.06713,0.369224 -0.05035,0.453139 -0.69649,0.52027 -0.34405,0.04196 -0.511881,0.09231 -0.511881,0.167831 0,0.06713 -0.03356,0.11748 -0.06714,0.11748 -0.07552,0 0.100697,1.904861 0.243351,2.601354 0.142657,0.704882 0.629361,1.83773 0.981801,2.29926 0.520272,0.688101 0.662927,0.763624 1.627944,0.788798 1.619552,0.05874 1.728643,0 4.170559,-2.206956 1.602768,-1.451722 1.653118,-1.510463 1.443332,-1.585987 -0.117481,-0.04196 -0.285312,-0.12587 -0.369226,-0.201394 -0.125871,-0.11748 -0.142654,-0.109088 -0.142654,0.0084 0,0.285311 -1.158022,0.05874 -1.183195,-0.22657 -0.0084,-0.05035 -0.03356,0 -0.06714,0.117481 -0.125871,0.469923 -0.763622,0.201396 -0.763622,-0.318874 0,-0.151047 -0.03356,-0.184613 -0.159438,-0.142655 -0.22657,0.06713 -0.310485,-0.109091 -0.125873,-0.251745 0.142654,-0.109089 0.142654,-0.117482 0.01679,-0.125871 -0.07552,0 -0.16783,0.03356 -0.193004,0.08391 -0.02517,0.04196 -0.184612,0.08391 -0.34405,0.08391 -0.411182,0 -0.788798,-0.377615 -0.788798,-0.788797 0,-0.167831 -0.04196,-0.302093 -0.08391,-0.302093 -0.05035,0 -0.08391,-0.05874 -0.08391,-0.134262 0,-0.1007 -0.04196,-0.117481 -0.151047,-0.06713 -0.07552,0.04196 -0.386007,0.06713 -0.6881,0.07552 -0.511878,0 -0.545444,-0.01677 -0.654532,-0.23496 -0.167831,-0.352442 -0.05035,-0.85593 0.293701,-1.233546 0.243352,-0.276917 0.260134,-0.327267 0.134262,-0.360832 -0.08391,-0.02518 -0.201395,-0.02518 -0.260136,-0.0084 -0.06713,0.01679 -0.226569,0.03356 -0.35244,0.03356 z m -23.294702,0.117481 c 0.02517,0.117481 0.0084,0.234962 -0.04196,0.268527 -0.109089,0.06713 -0.688101,0.06713 -0.914669,-0.0084 -0.125874,-0.04196 -0.151047,-0.02517 -0.117482,0.07552 0.06714,0.17622 -0.260135,0.243353 -0.939844,0.201396 -0.427965,-0.02518 -0.537053,-0.0084 -0.503488,0.07552 0.02518,0.06713 -0.03356,0.193004 -0.12587,0.285309 -0.159438,0.159438 -0.251746,0.176222 -0.96502,0.142654 -0.730058,-0.03357 -0.92306,0.0084 -0.704882,0.142657 0.142654,0.09231 0.0923,0.369223 -0.09231,0.46992 -0.100697,0.05035 -0.386008,0.09231 -0.629359,0.08392 -0.251743,0 -0.45314,0.03356 -0.45314,0.07552 0,0.08392 0.427966,0.134262 2.181781,0.251743 1.569205,0.109089 2.072691,0.193004 2.509049,0.411181 l 0.327265,0.167832 0.738448,-0.461531 c 0.411184,-0.260135 0.780408,-0.495097 0.822365,-0.537055 0.04196,-0.04195 -0.02517,-0.184611 -0.151047,-0.344047 -0.125872,-0.142657 -0.377615,-0.545446 -0.562227,-0.881105 -0.352442,-0.646142 -0.469923,-0.763624 -0.377616,-0.419573 z m 2.41674,0.209786 c 0.11748,0.193003 0.260136,0.193003 0.302093,-0.01677 0.01679,-0.08392 -0.04196,-0.142654 -0.16783,-0.159438 -0.260135,-0.04196 -0.268527,-0.03357 -0.134263,0.17622 z m 5.932764,0.125872 c 0.142656,0.167831 -0.151047,0.318877 -0.62936,0.318877 h -0.369223 v 0.545444 c 0,0.419573 -0.02517,0.537054 -0.109089,0.503489 -0.06714,-0.02517 -0.45314,-0.109089 -0.864321,-0.184613 -0.411181,-0.07552 -0.914669,-0.184611 -1.124458,-0.251745 -0.201393,-0.06713 -0.394397,-0.09231 -0.419571,-0.05874 -0.28531,0.377616 -0.755231,1.166413 -0.755231,1.26711 0,0.07552 -0.285311,0.402791 -0.637753,0.73845 -0.755232,0.704882 -0.755232,0.688101 -0.117479,1.644726 0.419571,0.62097 2.114649,2.341218 2.483873,2.509048 0.260134,0.117481 1.26711,-0.209788 1.812555,-0.595793 0.537055,-0.377616 1.401375,-1.585987 1.661511,-2.341219 0.167827,-0.461531 0.302092,-0.654534 1.015366,-1.367808 l 0.822363,-0.839147 -0.134262,-0.310485 c -0.151046,-0.377616 -0.704885,-0.965017 -1.158024,-1.241936 -0.302092,-0.17622 -1.124455,-0.427963 -1.460114,-0.444747 -0.09231,-0.0084 -0.09231,0.01679 -0.01679,0.109088 z m 4.833482,2.995754 c -0.64614,0.537054 -1.502072,1.317459 -1.888079,1.72864 -0.69649,0.730058 -1.636334,1.980386 -1.963602,2.592962 -0.243351,0.453139 -0.386006,1.166413 -0.386006,1.921645 0,0.612578 0.03356,0.755232 0.335659,1.42655 0.176219,0.419573 0.386008,0.763621 0.46153,0.780405 0.268525,0.05874 0.990191,-0.268527 1.904861,-0.847538 1.409767,-0.897886 1.669902,-1.040541 2.509049,-1.367808 1.015367,-0.394399 2.634918,-0.797188 4.615303,-1.166411 0.889497,-0.167831 1.627944,-0.310485 1.644728,-0.318877 0.0084,-0.01679 -0.07552,-0.251744 -0.184611,-0.528663 -0.427966,-1.065716 -0.579012,-1.95521 -0.679709,-4.1286 -0.05874,-1.124456 -0.125873,-1.409765 -0.243354,-1.023759 -0.07552,0.234961 -0.444747,0.503488 -0.704882,0.503488 -0.327266,0 -0.595793,-0.218178 -0.595793,-0.486705 0,-0.125872 -0.02517,-0.310484 -0.05035,-0.419573 -0.04196,-0.151046 -0.07552,-0.167828 -0.16783,-0.0923 -0.276917,0.22657 -0.537052,-0.243353 -0.537052,-0.998585 0,-0.696492 -0.07552,-0.671316 -1.552421,0.427966 -0.73845,0.562227 -1.871297,1.451721 -2.517442,1.997168 z m 18.167519,-0.595794 c 0,0.04195 0.03356,0.08391 0.08391,0.08391 0.04196,0 0.08391,-0.04196 0.08391,-0.08391 0,-0.05035 -0.04196,-0.08391 -0.08391,-0.08391 -0.05035,0 -0.08391,0.03356 -0.08391,0.08391 z M 20.406701,79.28509 c 0,0.01681 0.06713,0.08391 0.142654,0.142657 0.134266,0.10909 0.142655,0.100696 0.03356,-0.03356 -0.109089,-0.134261 -0.17622,-0.176222 -0.17622,-0.10909 z"
         id="path1011"
         style="fill:#000000;stroke:none;stroke-width:0.00839145" />
    </g>
    <text
       xml:space="preserve"
       style="font-size:23.9021px;line-height:1.25;font-family:Lato;-inkscape-font-specification:Lato;fill:#bbc6c3;stroke-width:0.597555;fill-opacity:1"
       x="137.9039"
       y="66.044853"
       id="text4656"><tspan
         sodipodi:role="line"
         id="tspan4654"
         style="fill:#bbc6c3;stroke-width:0.597555;fill-opacity:1"
         x="137.9039"
         y="66.044853">simplicity</tspan></text>
    <text
       xml:space="preserve"
       style="font-size:8.32378px;line-height:1.25;font-family:Lato;-inkscape-font-specification:'Lato, Normal';fill:#647871;stroke-width:0.346824;font-weight:normal;font-style:normal;font-stretch:normal;font-variant:normal;font-variant-ligatures:normal;font-variant-caps:normal;font-variant-numeric:normal;font-variant-east-asian:normal;fill-opacity:1"
       x="138.49028"
       y="76.891998"
       id="text10856"><tspan
         sodipodi:role="line"
         id="tspan15937">minimalist and clutter free coding</tspan></text>
  </g>
</svg>
