<?xml version="1.0" encoding="UTF-8" standalone="no"?>
<!-- Created with Inkscape (http://www.inkscape.org/) -->

<svg
   width="1024"
   height="300"
   viewBox="0 0 270.93334 79.374998"
   version="1.1"
   id="svg10911"
   xmlns="http://www.w3.org/2000/svg"
   xmlns:svg="http://www.w3.org/2000/svg">
  <defs
     id="defs10908">
    <clipPath
       clipPathUnits="userSpaceOnUse"
       id="clipPath22928">
      <rect
         style="fill:#575c5b;fill-opacity:1;stroke:none;stroke-width:0.264583"
         id="rect22930"
         width="269.875"
         height="79.375"
         x="0"
         y="0" />
    </clipPath>
  </defs>
  <g
     id="layer1">
    <g
       id="g22926"
       clip-path="url(#clipPath22928)">
      <rect
         style="fill:#161f24;fill-opacity:1;stroke:none;stroke-width:0.264583"
         id="rect22104"
         width="283.12939"
         height="102.34126"
         x="-1.9930918"
         y="-9.760994"
         transform="rotate(18.378039)" />
      <path
         style="fill:#000000;stroke-width:0.0840746"
         d="m 7.8220997,77.112543 c -1.69086,-0.455371 -3.971998,-2.604343 -4.713694,-4.440602 -0.254038,-0.62893 -0.335644,-1.675807 -0.188812,-2.422138 0.196931,-1.000982 0.717288,-1.774169 2.055732,-3.054587 2.427446,-2.322201 9.0721623,-8.495702 14.9694663,-13.907894 7.978689,-7.322364 11.852542,-10.941809 11.9942,-11.206502 0.05788,-0.108157 -0.0041,-0.519031 -0.216313,-1.432997 -0.163607,-0.704751 -0.334207,-1.565116 -0.379114,-1.911925 -0.10816,-0.835298 -0.108065,-3.766061 1.69e-4,-4.455966 0.14346,-0.914665 1.137858,-2.774468 1.483447,-2.774468 0.07706,0 2.375219,2.251866 5.107017,5.004144 2.7318,2.752279 4.989398,5.003382 5.016884,5.00245 0.02748,-9.3e-4 2.429924,-2.387188 5.338749,-5.302793 l 5.288749,-5.3011 0.125297,0.277633 c 0.09998,0.221534 0.124064,0.668338 0.119193,2.21135 -0.0056,1.751027 -0.02733,2.037697 -0.230804,3.034272 -0.823862,4.035246 -2.671853,7.510452 -5.927507,11.146858 l -0.728087,0.813236 -0.59346,0.0065 c -0.326407,0.0036 -2.350506,-0.05249 -4.498002,-0.124576 -2.147499,-0.07208 -4.101834,-0.107363 -4.342969,-0.07839 l -0.438427,0.05267 -4.015708,4.471299 C 14.899678,72.926424 11.847844,76.219595 10.757907,76.771908 9.8520377,77.230943 8.7406137,77.359893 7.8220997,77.112535 Z m 3.7033453,-4.054419 c 0.619113,-0.289724 1.218189,-0.837899 1.483028,-1.357026 0.866562,-1.698602 0.311046,-3.840907 -1.215062,-4.685786 -1.480108,-0.819412 -3.0478773,-0.628194 -4.1896173,0.511013 -0.635072,0.633659 -0.914331,1.306977 -0.963228,2.322412 -0.03779,0.784635 -0.02757,0.848493 0.220629,1.378865 0.522577,1.116725 1.101661,1.687695 2.020096,1.991803 0.366009,0.121192 0.658002,0.150214 1.2820823,0.127436 0.690366,-0.02521 0.888855,-0.06727 1.362072,-0.288717 z m 26.247072,-7.542421 c -1.25781,-0.232864 -4.406645,-1.097213 -5.177289,-1.421146 -0.540334,-0.227127 -0.537615,-0.211322 -0.339625,-1.974119 0.254337,-2.2645 0.291827,-2.054371 -0.431373,-2.417909 -0.711711,-0.357763 -1.408253,-0.799792 -1.408253,-0.893683 0,-0.03609 1.212698,-1.350087 2.694891,-2.919945 l 2.694887,-2.85429 0.436896,0.176547 c 0.903276,0.365011 2.421255,0.828259 3.181024,0.970764 0.638102,0.119686 1.256295,0.147584 3.267219,0.147428 2.32743,-1.68e-4 2.529407,-0.01248 3.278918,-0.199277 4.755408,-1.185356 8.325349,-3.8094 10.731548,-7.888095 1.598987,-2.710405 2.410026,-6.244997 2.137106,-9.313688 -0.196845,-2.21327 -0.674836,-3.972187 -1.607433,-5.915035 -1.912488,-3.984236 -5.316765,-6.979524 -9.522568,-8.37853 -1.785695,-0.593988 -2.52901,-0.720011 -4.559938,-0.773104 -2.089962,-0.05463 -3.057874,0.0371 -4.626597,0.438479 -3.066267,0.784555 -5.561387,2.248147 -7.779096,4.56308 -2.648588,2.764699 -4.275963,6.471395 -4.492779,10.233257 -0.105352,1.827862 0.210279,4.469298 0.710518,5.946152 l 0.248452,0.733516 -0.603486,0.533349 c -0.998036,0.882043 -4.348914,3.775151 -4.91825,4.246362 -0.292265,0.241891 -0.568153,0.417087 -0.613082,0.389317 -0.04493,-0.02778 -0.139787,-0.195684 -0.210794,-0.373146 -0.07101,-0.177465 -0.181872,-0.34291 -0.246365,-0.367658 -0.0645,-0.02476 -0.619603,0.02892 -1.233573,0.119234 -0.613968,0.09033 -1.461267,0.16441 -1.882885,0.164624 l -0.766581,3.17e-4 -0.304086,-0.861767 C 15.853577,45.99341 15.192132,43.433584 15.065347,42.345764 l -0.05451,-0.46769 0.661307,-0.276276 c 0.363717,-0.151951 1.143682,-0.485888 1.733256,-0.742084 l 1.071955,-0.465811 -0.0059,-2.153217 c -0.0032,-1.184268 -0.03363,-2.223713 -0.0675,-2.309879 -0.04051,-0.103052 -0.606747,-0.391716 -1.65457,-0.843503 l -1.592975,-0.68687 0.01077,-0.669844 c 0.0062,-0.384217 0.107718,-1.100045 0.238122,-1.678742 0.246937,-1.095831 1.029488,-3.534666 1.311621,-4.087692 l 0.17552,-0.344046 0.477178,0.06046 c 0.262446,0.03325 1.0636,0.127755 1.780337,0.210004 1.519523,0.17437 1.43244,0.204981 1.908481,-0.670852 0.164017,-0.301764 0.615129,-1.084805 1.002473,-1.740089 0.387343,-0.655285 0.704261,-1.255723 0.704261,-1.334305 0,-0.07858 -0.390444,-0.67745 -0.867658,-1.330816 -1.092383,-1.495615 -1.234385,-1.701628 -1.233464,-1.789442 0.0016,-0.137159 0.864341,-1.093064 2.250525,-2.493101 1.526189,-1.541434 2.480864,-2.371896 2.645634,-2.301401 0.05805,0.02484 0.748716,0.520546 1.534817,1.101578 0.786099,0.58103 1.475243,1.056672 1.531437,1.056983 0.05619,3.49e-4 0.415609,-0.201539 0.798709,-0.448553 0.383099,-0.247013 1.169466,-0.717487 1.74748,-1.045499 1.504913,-0.854005 1.362562,-0.613267 1.176956,-1.990429 -0.08695,-0.645144 -0.183419,-1.496791 -0.214379,-1.892549 l -0.05629,-0.71956 1.837894,-0.56463 c 1.010841,-0.310547 2.174601,-0.643965 2.586133,-0.740931 0.649968,-0.153145 2.013718,-0.415791 2.160676,-0.416126 0.06448,-1.51e-4 0.759302,1.474689 1.207357,2.562716 l 0.345628,0.839297 0.394217,0.06609 c 0.216816,0.03635 1.253712,0.05591 2.30421,0.04349 l 1.909997,-0.0226 0.72852,-1.704515 c 0.400683,-0.937482 0.748459,-1.724455 0.772832,-1.748827 0.210648,-0.210647 5.728964,1.244582 6.43245,1.696294 0.246981,0.158587 0.249994,0.640274 0.01548,2.474962 -0.09553,0.74737 -0.161742,1.369556 -0.147131,1.382637 0.01461,0.01308 0.556236,0.316114 1.20361,0.67341 0.647376,0.357297 1.490477,0.853539 1.87356,1.10276 0.383079,0.249222 0.738431,0.453131 0.789666,0.453131 0.05123,0 0.664732,-0.422102 1.363325,-0.938002 0.698588,-0.515904 1.372825,-1.01384 1.498312,-1.106525 l 0.228151,-0.168522 0.360368,0.244093 c 0.447624,0.303189 3.699964,3.530242 4.174101,4.141645 l 0.348315,0.449153 -0.147298,0.250783 c -0.08102,0.13793 -0.572929,0.823201 -1.093141,1.522825 -0.520212,0.699624 -0.945843,1.312557 -0.945843,1.362071 0,0.04951 0.176024,0.3728 0.391164,0.718412 0.21514,0.345614 0.67236,1.120225 1.016038,1.721359 0.343685,0.601136 0.684278,1.159182 0.756874,1.240104 0.17059,0.19014 0.477564,0.187393 2.207816,-0.01976 0.762977,-0.09135 1.433753,-0.166832 1.490615,-0.167747 0.153409,-0.0025 0.381211,0.50111 0.772749,1.708245 0.627197,1.933675 1.178669,4.420532 1.085995,4.897281 -0.0196,0.100836 -0.549642,0.371542 -1.709901,0.873299 l -1.681498,0.727166 -0.0218,1.003715 c -0.01196,0.552043 0.0069,1.582723 0.04204,2.290397 l 0.06382,1.286682 1.628272,0.703115 c 0.895551,0.386711 1.666619,0.741459 1.713496,0.788332 0.1843,0.184306 -0.363402,2.560502 -1.170534,5.078323 l -0.478392,1.492329 -0.720312,-0.0031 c -0.396168,-0.0016 -1.268549,-0.07453 -1.938627,-0.16191 -0.67007,-0.08738 -1.222241,-0.152215 -1.227039,-0.144084 -0.0046,0.0081 -0.299925,0.53967 -0.655832,1.181207 -0.3559,0.641534 -0.869206,1.519807 -1.140671,1.951722 l -0.49357,0.785301 0.55759,0.73867 c 1.436121,1.902492 1.6959,2.308036 1.598526,2.495441 -0.345063,0.664083 -3.144179,3.492053 -4.533584,4.580312 l -0.218769,0.171348 -1.504762,-1.130124 c -0.827623,-0.621565 -1.544662,-1.130668 -1.593419,-1.131327 -0.04876,-6.33e-4 -0.419791,0.208881 -0.82451,0.465653 -0.404722,0.256772 -1.216085,0.733839 -1.803031,1.060142 -0.586944,0.326295 -1.1139,0.637213 -1.171014,0.690912 -0.08227,0.07736 -0.06928,0.38546 0.06254,1.483128 0.09151,0.76201 0.166613,1.602058 0.166898,1.866754 6.37e-4,0.447917 -0.01665,0.490147 -0.247022,0.609282 -0.609482,0.315168 -3.871865,1.232959 -5.370963,1.510981 -0.519095,0.09626 -0.744259,0.106223 -0.870789,0.0385 -0.180848,-0.0968 -0.67298,-1.076238 -1.267045,-2.521685 l -0.359631,-0.875045 -2.281802,-0.02234 -2.281802,-0.02234 -0.230569,0.610881 c -0.333562,0.883752 -1.158338,2.603921 -1.330925,2.775804 -0.169104,0.168414 -0.15135,0.167974 -0.934436,0.02302 z M 36.691291,33.3465 c -1.726569,-1.755958 -2.744176,-2.852202 -2.744176,-2.956234 0,-0.224974 0.54872,-0.717167 1.555498,-1.395257 2.206148,-1.4859 5.210792,-2.495192 8.029674,-2.697254 2.0064,-0.143821 5.426371,-0.0708 5.617106,0.119936 0.05039,0.05039 -9.484006,9.658311 -9.620577,9.694771 -0.05134,0.0137 -1.32823,-1.230976 -2.837525,-2.765962 z"
         id="path11002" />
      <text
         xml:space="preserve"
         style="font-size:12.9648px;line-height:1.25;font-family:Lato;-inkscape-font-specification:Lato;fill:#bbc6c3;fill-opacity:1;stroke-width:0.324121"
         x="114.95412"
         y="66.702538"
         id="text14822"><tspan
           id="tspan14820"
           style="fill:#bbc6c3;fill-opacity:1;stroke-width:0.324121"
           x="114.95412"
           y="66.702538">right tools for the right job</tspan></text>
      <text
         xml:space="preserve"
         style="font-size:8.01983px;line-height:1.25;font-family:Lato;-inkscape-font-specification:Lato;stroke-width:0.200496;fill:#575c5b;fill-opacity:1"
         x="114.90931"
         y="76.939087"
         id="text21604"><tspan
           id="tspan21602"
           style="stroke-width:0.200496;fill:#575c5b;fill-opacity:1"
           x="114.90931"
           y="76.939087">no need to reinvent the wheel</tspan></text>
    </g>
  </g>
</svg>
